<svg width="144" height="40" viewBox="0 0 144 40" fill="none" xmlns="http://www.w3.org/2000/svg">
<path d="M135.183 31.0419C133.911 33.8539 132.657 36.6321 131.403 39.444C131.203 39.8171 131.084 39.9024 130.695 39.9044C128.786 39.9818 126.875 39.9897 124.896 39.9997C125.833 37.8823 126.736 35.8998 127.607 33.9352C127.974 33.0383 128.377 32.1393 128.796 31.3098C128.996 30.9368 128.996 30.5994 128.79 30.1609C126.142 24.5429 123.513 19.0103 120.85 13.4281C120.731 13.2257 120.645 13.057 120.524 12.7197L126.001 12.6939C126.458 12.6919 126.712 12.809 126.9 13.2654C128.164 16.0992 129.429 18.8833 130.726 21.6655L130.83 21.8679C131.103 22.4751 131.393 23.0824 131.667 23.7075C131.736 23.9099 131.871 24.0786 131.992 24.4159C131.992 24.404 131.998 24.3981 132.008 24.3981L135.183 31.0439V31.0419Z" fill="#0095FB"/>
<path d="M137.095 13.1129C137.295 12.7399 137.414 12.6049 137.871 12.6029L143.501 12.5771C143.433 12.7796 143.368 12.9502 143.3 13.0852C140.59 19.0484 138.752 23.6225 136.075 29.6195L132.934 22.922" fill="url(#paint0_linear_152_632)"/>
<path d="M79.9211 31.5227C79.935 34.2791 79.9469 36.9323 79.9588 39.6549C78.0994 39.6629 76.3233 39.6728 74.4818 39.6807V39.1231C74.454 33.9001 74.4302 28.6592 74.4064 23.5036C74.3806 18.1616 78.2482 13.6966 83.5368 12.9961C88.3351 12.2976 92.8934 14.6094 95.0088 18.7231C97.2432 23.075 95.9851 28.5064 91.9924 31.485C89.6012 33.271 86.8984 34.0965 83.9396 33.6699C82.4671 33.2889 81.1614 32.6519 79.9231 31.5247L79.9211 31.5227ZM90.6013 23.2238C90.5874 20.1976 88.1069 17.7587 85.0985 17.7726C82.0901 17.7865 79.6334 20.267 79.6473 23.208C79.6612 26.2342 82.0742 28.6731 85.1501 28.7267C88.1585 28.7287 90.6152 26.2322 90.6013 23.2238Z" fill="#0095FB"/>
<path d="M61.0692 12.8971C65.6334 12.8753 69.7035 15.5622 71.2613 19.5608C73.0572 24.1667 71.426 29.2806 67.1952 32.0052C62.6449 34.9342 56.7412 34.202 53.0382 30.3482C48.8412 26.0063 49.4166 18.8702 54.336 15.211C56.257 13.681 58.551 12.909 61.0712 12.8971H61.0692ZM55.6914 23.3193C55.7053 26.3456 58.1858 28.7845 61.1268 28.7706C64.0856 28.6892 66.457 26.2781 66.5105 23.2677C66.4966 20.2415 64.0161 17.8026 61.0752 17.8165C58.0827 17.8483 55.6259 20.3109 55.6914 23.3193Z" fill="#0095FB"/>
<path d="M115.394 32.8777C113.535 32.8856 111.759 32.8956 109.917 32.9035C109.893 27.9166 109.87 22.9456 109.846 17.8913C109.12 17.8952 108.358 17.8992 107.631 17.9012C107.623 16.2958 107.615 14.3689 107.607 12.7794L109.755 12.7694C109.862 10.2492 110.834 8.72319 112.872 7.22693C114.726 5.9172 116.754 5.83981 118.901 5.9807C118.907 7.40156 118.915 8.80455 118.921 10.275C117.198 10.5191 115.609 10.5112 115.178 12.6603C116.48 12.6544 117.647 12.6484 118.931 12.6424C118.939 14.2479 118.946 16.1747 118.954 17.7643C117.738 17.7702 116.553 17.7762 115.269 17.7821C115.345 22.9377 115.369 27.9246 115.39 32.8777H115.394Z" fill="#0095FB"/>
<path d="M43.4808 33.2151C41.6214 33.223 39.8453 33.2329 38.0712 33.2409C38.0712 33.1218 38.0018 33.0047 38.0018 32.9194C37.9859 29.5221 37.9026 26.2081 37.9541 22.8107C37.9998 18.0778 41.2265 14.1745 45.8383 13.1703C46.767 12.9798 47.8148 12.9243 48.7951 12.835C48.803 14.5594 48.811 16.2323 48.8189 17.8218C48.3288 17.9429 47.7711 17.9449 47.283 18.1513C45.0207 18.8379 43.4074 20.9255 43.4193 23.2751C43.4332 26.3509 43.449 29.4963 43.4629 32.5721C43.4808 32.8261 43.4828 32.9948 43.4828 33.2151H43.4808Z" fill="#0095FB"/>
<path d="M104.492 32.9293C102.718 32.9372 100.926 32.9451 99.0826 32.9551C99.0508 26.2616 99.0191 19.5165 98.9873 12.7714C100.761 12.7635 102.553 12.7555 104.397 12.7456C104.429 19.5244 104.46 26.202 104.492 32.9293Z" fill="#0095FB"/>
<path d="M101.668 11.3033C99.894 11.3113 98.5168 9.94798 98.5088 8.1739C98.5009 6.39982 99.9138 5.02262 101.638 5.01468C103.363 5.00674 104.79 6.41966 104.797 8.14413C104.805 9.88448 103.408 11.2954 101.668 11.3033Z" fill="#0095FB"/>
<path d="M32.7109 4.19937C32.7526 4.44544 32.9987 4.65182 33.2467 4.5903C33.4928 4.54863 33.7408 4.34423 33.6377 3.99298C33.596 3.80843 33.3499 3.60205 33.1019 3.60205C32.8558 3.66357 32.6692 3.91162 32.7109 4.19937Z" fill="url(#paint1_linear_152_632)"/>
<path d="M16.6649 12.161C16.6649 12.798 16.6848 13.4152 16.6649 14.0324C16.6232 16.4593 15.5338 18.2493 13.3112 19.2792C12.6326 19.6086 11.9122 19.7515 11.1303 19.7317V6.62646H21.3541C23.4517 6.62646 25.448 7.05907 27.2995 7.98382C31.6196 10.1449 34.3145 13.5998 35.0765 18.3723C35.8584 23.2481 34.3363 27.4451 30.7147 30.8187C28.514 32.8765 25.8588 34.089 22.8563 34.4184C20.5941 34.6645 18.3299 34.6645 16.1093 34.0692C13.5176 33.3707 11.4181 31.8883 9.77299 29.7689C8.74505 28.4532 7.81832 27.0324 6.83206 25.6552C6.17323 24.7285 5.49455 23.8454 4.58965 23.125C3.53988 22.3015 2.34724 21.8709 1.00973 21.7459C0.680316 21.7042 0.3509 21.7042 0.0214844 21.6645V16.1914C0.412418 16.1914 0.761678 16.1716 1.15261 16.1914C3.68276 16.3561 5.98669 17.1578 8.02272 18.7216C9.42174 19.8329 10.533 21.2101 11.5411 22.6706C12.3647 23.8434 13.1664 25.0579 14.0514 26.2088C14.998 27.463 16.1708 28.3897 17.7345 28.7192C18.3318 28.8422 18.9688 28.9454 19.586 28.9454C20.7171 28.9652 21.8284 28.9871 22.9595 28.7608C26.1902 28.1238 28.9466 25.3655 29.5419 22.1169C30.3853 17.5508 27.4444 13.2088 22.898 12.2841C22.3225 12.1809 21.7252 12.0995 21.1497 12.0995C19.7309 12.0579 18.3318 12.0797 16.911 12.0995C16.8495 12.1412 16.788 12.161 16.6649 12.161Z" fill="#0095FB"/>
<path d="M26.6408 5.67945C26.4563 5.18532 26.2697 4.75272 26.0852 4.3221C25.7756 3.72478 25.345 3.39536 24.6861 3.39536H23.2871C23.5967 3.27233 24.0273 3.08579 24.3984 2.96276C25.1386 2.65319 25.5097 2.09953 25.5097 1.29584V0C25.5712 0.184552 25.6327 0.309573 25.6942 0.494125C25.8173 0.803696 26.0038 1.1728 26.1268 1.46054C26.3729 1.95467 26.8055 2.20074 27.3611 2.26225C27.9168 2.32377 28.3891 2.32377 28.8832 2.32377C28.5736 2.44681 28.2859 2.56984 27.9565 2.69486C27.7719 2.75638 27.5854 2.87941 27.4008 3.00443C26.9682 3.2505 26.7222 3.60175 26.6606 4.11572C26.5991 4.60984 26.6606 5.08213 26.5991 5.51474C26.6408 5.57626 26.6408 5.63777 26.6408 5.67945Z" fill="url(#paint2_linear_152_632)"/>
<path d="M36.8256 8.2313C36.393 8.29282 35.9623 8.29282 35.5297 8.35434C34.7895 8.41585 34.2954 8.84846 34.0692 9.58865C33.9462 9.89822 33.8846 10.2673 33.7596 10.5551C33.7596 10.6166 33.6981 10.6781 33.6981 10.7396C33.6981 10.4936 33.6981 10.184 33.6366 9.93791C33.6366 9.69184 33.5751 9.50531 33.5136 9.25924C33.3905 8.7036 33.081 8.29282 32.5868 8.08644C32.1542 7.90188 31.7236 7.84037 31.291 7.71535C31.2295 7.71535 31.168 7.65383 31.0449 7.65383C31.4775 7.59231 31.8466 7.59231 32.2177 7.5308C33.081 7.46928 33.6783 7.03667 33.9462 6.17344C34.0692 5.80236 34.1307 5.43325 34.2557 5.14551C34.2557 5.45508 34.3173 5.74282 34.3173 6.07224C34.3173 6.25679 34.3788 6.44333 34.3788 6.62788C34.5018 7.18352 34.8114 7.55461 35.3055 7.73916C35.7381 7.92371 36.1687 7.98523 36.6013 8.11025C36.643 8.15192 36.7045 8.23329 36.8276 8.23329L36.8256 8.2313Z" fill="url(#paint3_linear_152_632)"/>
<path d="M28.6172 4.65186C29.3574 5.2075 29.4804 5.39205 30.5103 4.77489C29.9547 5.33053 29.8317 5.88617 30.3258 6.545C29.7285 5.94769 29.153 5.94769 28.5557 6.48349C29.153 5.88617 29.153 5.26901 28.6172 4.65186Z" fill="url(#paint4_linear_152_632)"/>
<path d="M8.90812 28.6589C8.80493 28.4942 8.45567 27.9803 6.81057 25.6962C6.15174 24.7695 5.47307 23.8864 4.56816 23.166C3.54023 22.3425 2.32575 21.9119 0.988247 21.7869C0.658831 21.7452 0.329416 21.7452 0 21.7055V16.2324C1.99634 17.4469 6.62404 22.6302 8.90812 28.6589Z" fill="url(#paint5_linear_152_632)"/>
<defs>
<linearGradient id="paint0_linear_152_632" x1="132.908" y1="21.1298" x2="143.524" y2="21.0798" gradientUnits="userSpaceOnUse">
<stop stop-color="#FFB500"/>
<stop offset="1" stop-color="#FF830A"/>
</linearGradient>
<linearGradient id="paint1_linear_152_632" x1="32.7327" y1="4.10213" x2="33.6793" y2="4.10213" gradientUnits="userSpaceOnUse">
<stop stop-color="#FFB500"/>
<stop offset="1" stop-color="#FF830A"/>
</linearGradient>
<linearGradient id="paint2_linear_152_632" x1="23.2358" y1="3.23721" x2="28.9288" y2="2.39553" gradientUnits="userSpaceOnUse">
<stop stop-color="#FFB500"/>
<stop offset="1" stop-color="#FF830A"/>
</linearGradient>
<linearGradient id="paint3_linear_152_632" x1="31.2126" y1="8.32662" x2="36.7622" y2="7.50613" gradientUnits="userSpaceOnUse">
<stop stop-color="#FFB500"/>
<stop offset="1" stop-color="#FF830A"/>
</linearGradient>
<linearGradient id="paint4_linear_152_632" x1="28.4676" y1="5.7218" x2="30.6191" y2="5.40371" gradientUnits="userSpaceOnUse">
<stop stop-color="#FFB500"/>
<stop offset="1" stop-color="#FF830A"/>
</linearGradient>
<linearGradient id="paint5_linear_152_632" x1="0.0496108" y1="22.4457" x2="8.92598" y2="22.4457" gradientUnits="userSpaceOnUse">
<stop stop-color="#FFB500"/>
<stop offset="1" stop-color="#FF830A"/>
</linearGradient>
</defs>
</svg>
