<svg width="370" height="270" viewBox="0 0 370 270" fill="none" xmlns="http://www.w3.org/2000/svg">
<path d="M366.687 243H88.6599C87.0276 243 85.9395 241.913 85.9395 240.282C85.9395 238.652 87.0276 237.564 88.6599 237.564H366.415C368.047 237.564 369.135 238.652 369.135 240.282C369.135 241.913 368.047 243 366.687 243Z" fill="#001829"/>
<path d="M288.339 237.835C267.663 238.379 242.908 237.835 225.497 237.564C208.086 238.107 183.33 238.379 162.655 237.835C183.058 226.148 190.132 204.676 191.22 190.542H259.502C260.862 204.676 267.936 226.42 288.339 237.835Z" fill="url(#paint0_linear_152_723)"/>
<path d="M354.445 10.6104V188.368C354.445 192.717 350.908 195.978 346.828 195.978H104.982C100.902 195.978 97.3652 192.445 97.3652 188.368V10.6104C97.3652 6.53341 100.902 3 104.982 3H346.828C351.18 3 354.445 6.53341 354.445 10.6104Z" fill="#D1DFFF"/>
<path d="M354.445 10.6104V163.634H97.3652V10.6104C97.3652 6.53341 100.902 3 104.982 3H346.828C351.18 3 354.445 6.53341 354.445 10.6104Z" fill="#001829"/>
<path d="M344.651 12.5127H106.07V154.936H344.651V12.5127Z" fill="white"/>
<path opacity="0.4" d="M225.497 187.01C228.953 187.01 231.754 184.211 231.754 180.758C231.754 177.306 228.953 174.507 225.497 174.507C222.042 174.507 219.24 177.306 219.24 180.758C219.24 184.211 222.042 187.01 225.497 187.01Z" fill="white"/>
<path opacity="0.05" d="M331.321 147.325H294.596C291.603 147.325 288.883 144.879 288.883 141.618V25.2869C288.883 22.2971 291.331 19.5791 294.596 19.5791H331.321C334.314 19.5791 337.034 22.0253 337.034 25.2869V141.618C337.034 144.879 334.586 147.325 331.321 147.325Z" fill="#001829"/>
<path opacity="0.1" d="M325.337 28.5492H300.853C300.037 28.5492 299.221 27.7338 299.221 26.9184C299.221 26.103 300.037 25.2876 300.853 25.2876H325.337C326.153 25.2876 326.969 26.103 326.969 26.9184C326.969 27.7338 326.153 28.5492 325.337 28.5492Z" fill="#001829"/>
<path opacity="0.1" d="M329.417 41.0554H296.772C295.956 41.0554 295.412 40.5113 295.412 39.6952C295.412 38.879 295.956 38.335 296.772 38.335H329.417C330.233 38.335 330.778 38.879 330.778 39.6952C330.778 40.5113 330.233 41.0554 329.417 41.0554Z" fill="#001829"/>
<path opacity="0.1" d="M329.417 48.6657H296.772C295.956 48.6657 295.412 48.1216 295.412 47.3055C295.412 46.4894 295.956 45.9453 296.772 45.9453H329.417C330.233 45.9453 330.778 46.4894 330.778 47.3055C330.778 48.1216 330.233 48.6657 329.417 48.6657Z" fill="#001829"/>
<path opacity="0.1" d="M329.417 56.2761H296.772C295.956 56.2761 295.412 55.732 295.412 54.9159C295.412 54.0997 295.956 53.5557 296.772 53.5557H329.417C330.233 53.5557 330.778 54.0997 330.778 54.9159C330.778 55.732 330.233 56.2761 329.417 56.2761Z" fill="#001829"/>
<path opacity="0.1" d="M329.417 63.8864H296.772C295.956 63.8864 295.412 63.3424 295.412 62.5262C295.412 61.7101 295.956 61.166 296.772 61.166H329.417C330.233 61.166 330.778 61.7101 330.778 62.5262C330.778 63.3424 330.233 63.8864 329.417 63.8864Z" fill="#001829"/>
<path opacity="0.1" d="M329.417 71.4968H296.772C295.956 71.4968 295.412 70.9527 295.412 70.1366C295.412 69.3205 295.956 68.7764 296.772 68.7764H329.417C330.233 68.7764 330.778 69.3205 330.778 70.1366C330.778 70.9527 330.233 71.4968 329.417 71.4968Z" fill="#001829"/>
<path opacity="0.1" d="M329.417 79.1071H296.772C295.956 79.1071 295.412 78.5631 295.412 77.7469C295.412 76.9308 295.956 76.3867 296.772 76.3867H329.417C330.233 76.3867 330.778 76.9308 330.778 77.7469C330.778 78.5631 330.233 79.1071 329.417 79.1071Z" fill="#001829"/>
<path opacity="0.1" d="M329.417 86.7175H296.772C295.956 86.7175 295.412 86.1734 295.412 85.3573C295.412 84.5412 295.956 83.9971 296.772 83.9971H329.417C330.233 83.9971 330.778 84.5412 330.778 85.3573C330.778 85.9014 330.233 86.7175 329.417 86.7175Z" fill="#001829"/>
<path opacity="0.1" d="M329.417 94.3278H296.772C295.956 94.3278 295.412 93.7838 295.412 92.9676C295.412 92.1515 295.956 91.6074 296.772 91.6074H329.417C330.233 91.6074 330.778 92.1515 330.778 92.9676C330.778 93.5117 330.233 94.3278 329.417 94.3278Z" fill="#001829"/>
<path opacity="0.1" d="M329.417 101.938H296.772C295.956 101.938 295.412 101.394 295.412 100.578C295.412 99.7619 295.956 99.2178 296.772 99.2178H329.417C330.233 99.2178 330.778 99.7619 330.778 100.578C330.778 101.122 330.233 101.938 329.417 101.938Z" fill="#001829"/>
<path opacity="0.05" d="M127.018 94.325H187.683C190.132 94.325 192.308 92.1506 192.308 89.7044V26.9185C192.308 24.4723 190.132 22.2979 187.683 22.2979H127.018C124.569 22.2979 122.393 24.4723 122.393 26.9185V89.7044C122.121 92.1506 124.297 94.325 127.018 94.325Z" fill="#001829"/>
<path d="M157.214 63.6119C165.928 63.6119 172.992 56.5539 172.992 47.8474C172.992 39.141 165.928 32.083 157.214 32.083C148.5 32.083 141.436 39.141 141.436 47.8474C141.436 56.5539 148.5 63.6119 157.214 63.6119Z" fill="#CED7E2"/>
<path d="M178.977 74.7564H135.723C134.634 74.7564 133.818 73.941 133.818 72.8538C133.818 71.7666 134.634 70.9512 135.723 70.9512H178.977C180.065 70.9512 180.882 71.7666 180.882 72.8538C180.882 73.941 180.065 74.7564 178.977 74.7564Z" fill="#CED7E2"/>
<path d="M165.919 83.4527H148.78C147.692 83.4527 146.876 82.6373 146.876 81.5501C146.876 80.4629 147.692 79.6475 148.78 79.6475H165.919C167.007 79.6475 167.823 80.4629 167.823 81.5501C167.823 82.3655 167.007 83.4527 165.919 83.4527Z" fill="#CED7E2"/>
<path opacity="0.05" d="M208.631 94.325H269.296C271.744 94.325 273.921 92.1506 273.921 89.7044V26.9185C273.921 24.4723 271.744 22.2979 269.296 22.2979H208.631C206.182 22.2979 204.006 24.4723 204.006 26.9185V89.7044C204.006 92.1506 206.182 94.325 208.631 94.325Z" fill="#001829"/>
<path d="M239.1 63.6119C247.814 63.6119 254.878 56.5539 254.878 47.8474C254.878 39.141 247.814 32.083 239.1 32.083C230.386 32.083 223.321 39.141 223.321 47.8474C223.321 56.5539 230.386 63.6119 239.1 63.6119Z" fill="#CED7E2"/>
<path opacity="0.1" d="M260.863 74.7564H217.336C216.248 74.7564 215.432 73.941 215.432 72.8538C215.432 71.7666 216.248 70.9512 217.336 70.9512H260.591C261.679 70.9512 262.495 71.7666 262.495 72.8538C262.767 73.941 261.951 74.7564 260.863 74.7564Z" fill="#001829"/>
<path opacity="0.1" d="M247.804 83.4527H230.394C229.305 83.4527 228.489 82.6373 228.489 81.5501C228.489 80.4629 229.305 79.6475 230.394 79.6475H247.532C248.62 79.6475 249.436 80.4629 249.436 81.5501C249.709 82.3655 248.892 83.4527 247.804 83.4527Z" fill="#001829"/>
<path opacity="0.05" d="M192.308 108.459V138.937C192.308 147.773 185.144 154.937 176.308 154.937H138.121C129.285 154.937 122.121 147.773 122.121 138.937V108.459C122.121 105.741 124.297 103.838 126.746 103.838H187.411C190.132 103.838 192.308 106.013 192.308 108.459Z" fill="#001829"/>
<path d="M157.215 145.152C165.929 145.152 172.993 138.094 172.993 129.388C172.993 120.682 165.929 113.624 157.215 113.624C148.501 113.624 141.437 120.682 141.437 129.388C141.437 138.094 148.501 145.152 157.215 145.152Z" fill="#CED7E2"/>
<path d="M180.882 154.395C180.882 154.667 180.882 154.667 180.882 154.939H133.547C133.547 154.667 133.547 154.667 133.547 154.395C133.547 153.306 134.363 152.49 135.451 152.49H178.706C180.066 152.49 180.882 153.306 180.882 154.395Z" fill="#CED7E2"/>
<path opacity="0.05" d="M274.193 108.459V138.937C274.193 147.773 267.029 154.937 258.193 154.937H220.006C211.169 154.937 204.006 147.773 204.006 138.937V108.459C204.006 105.741 206.182 103.838 208.631 103.838H269.296C272.016 103.838 274.193 106.013 274.193 108.459Z" fill="#001829"/>
<path d="M239.1 145.152C247.814 145.152 254.878 138.094 254.878 129.388C254.878 120.682 247.814 113.624 239.1 113.624C230.386 113.624 223.321 120.682 223.321 129.388C223.321 138.094 230.386 145.152 239.1 145.152Z" fill="#CED7E2"/>
<path opacity="0.1" d="M262.767 154.395C262.767 154.667 262.767 154.667 262.767 154.939H215.432C215.432 154.667 215.432 154.667 215.432 154.395C215.432 153.306 216.248 152.49 217.608 152.49H260.863C261.951 152.49 262.767 153.306 262.767 154.395Z" fill="#001829"/>
<g filter="url(#filter0_d_152_723)">
<path d="M175.986 177.768H72.6096C66.6247 177.768 62 172.875 62 167.168V42.1393C62 36.1597 66.8968 31.5391 72.6096 31.5391H175.986C181.971 31.5391 186.595 36.4315 186.595 42.1393V167.168C186.595 172.875 181.698 177.768 175.986 177.768Z" fill="white"/>
</g>
<path opacity="0.1" d="M147.693 136.998H80.4985C78.5942 136.998 76.9619 135.368 76.9619 133.465C76.9619 131.562 78.5942 129.932 80.4985 129.932H147.693C149.597 129.932 151.229 131.562 151.229 133.465C151.229 135.368 149.597 136.998 147.693 136.998Z" fill="#001829"/>
<path opacity="0.1" d="M110.151 157.382H80.4985C78.5942 157.382 76.9619 155.751 76.9619 153.849C76.9619 151.946 78.5942 150.315 80.4985 150.315H110.151C112.055 150.315 113.688 151.946 113.688 153.849C113.416 155.751 112.055 157.382 110.151 157.382Z" fill="#001829"/>
<path d="M162.465 92.3027C162.193 91.7591 162.738 90.0557 162.465 89.5121C161.377 87.8812 159.604 87.5368 156.884 86.7214C153.075 85.6341 150.686 83.997 147.694 83.7252C146.877 83.7252 146.061 83.4534 145.517 83.4534C137.084 82.638 130.011 81.279 114.504 62.2529C112.872 60.3503 112.056 58.4477 110.424 56.5451C108.792 54.9143 106.071 56.8169 102.535 57.6323C101.718 57.9041 101.174 57.9041 100.358 57.9041C97.6378 57.9041 94.3733 57.6323 91.3808 57.3605C87.3002 56.8169 89.7486 54.6425 84.8518 85.8996C84.5798 88.3458 84.3078 90.5202 84.0357 92.9664C83.7637 94.869 83.7637 97.0434 83.7637 98.946C83.7637 99.7614 84.0357 101.12 84.8518 101.12C97.9099 102.479 106.343 101.936 127.018 101.664C137.356 101.664 147.694 101.664 158.031 99.7614L160.48 99.4896C162.656 99.2178 164.832 98.4024 164.832 97.0434C164.832 95.1408 163.01 94.2054 162.465 92.3027Z" fill="#0095FB"/>
<path d="M147.694 83.9968L145.245 91.0636C131.915 90.5201 118.313 82.0942 111.24 71.2222C108.792 67.417 106.887 63.34 104.167 60.0784C104.167 60.0784 103.351 58.9912 102.263 58.1758C105.799 57.3604 108.52 55.4578 110.152 57.0886C111.512 58.4476 112.056 59.5348 113.144 60.8938C113.416 61.4374 113.688 61.7092 113.961 62.2528C113.961 62.5246 114.233 62.5246 114.233 62.7964C115.049 63.8836 116.137 64.9708 116.953 66.058C117.225 66.3298 117.497 66.6016 117.769 67.1452C118.857 68.2324 119.673 69.3196 120.762 70.4068C121.034 70.6786 121.306 70.9504 121.578 71.494C122.666 72.5812 123.482 73.6684 124.57 74.4838C124.842 74.7556 125.386 75.0274 125.658 75.571C126.746 76.3864 127.563 77.2018 128.379 78.0172C128.923 78.289 129.195 78.5608 129.739 79.1044C130.555 79.648 131.099 80.1916 131.915 80.4634C132.459 80.7352 133.003 81.007 133.275 81.2788C134.636 82.0942 135.996 82.6378 137.356 83.1814C137.9 83.4532 138.444 83.4532 138.988 83.725C141.165 84.2686 143.069 84.5404 145.245 84.8122C146.061 83.725 146.878 83.725 147.694 83.9968Z" fill="#006CB7"/>
<path d="M164.832 97.3147C164.832 98.6737 162.384 99.4891 160.48 99.7609L158.031 100.033C147.966 101.935 137.356 101.935 127.018 101.935C106.343 101.935 98.1819 102.479 84.8518 101.392C83.7637 101.392 83.7637 100.033 83.7637 99.2173C83.7637 97.0429 83.7637 95.1403 84.0357 93.2377C91.3808 93.7813 122.394 95.4121 146.061 92.9659C152.59 92.1505 158.575 91.3351 163.2 89.9761C163.472 90.5197 163.744 91.0633 164.016 91.6069C164.56 93.2377 164.832 95.1403 164.832 97.3147Z" fill="#E5ECF4"/>
<path d="M164.016 91.3353C159.119 92.9661 154.222 94.0533 149.054 94.3251C148.238 94.3251 147.421 94.3251 146.877 94.0533C146.061 93.7815 146.061 93.2379 145.789 92.6943C145.789 92.4225 145.789 92.1507 145.789 91.8789C145.517 89.1609 145.245 86.1711 145.245 83.4531C148.782 83.7249 152.59 83.9967 157.215 85.6275C159.935 86.4429 161.84 87.8019 162.928 89.7045C163.472 90.2481 163.744 90.7917 164.016 91.3353Z" fill="#E5ECF4"/>
<path d="M113.961 61.9808C113.961 62.2526 113.961 62.2526 113.961 61.9808L110.424 64.6988C110.152 64.6988 110.152 64.9706 109.88 64.9706C109.608 64.9706 109.336 64.9706 109.336 64.6988C109.064 64.427 109.064 63.8834 109.608 63.6116L113.145 60.8936H113.417C113.417 61.1654 113.689 61.709 113.961 61.9808Z" fill="#DFECFD"/>
<path d="M118.041 66.6012C118.041 66.873 118.041 66.873 117.769 67.1448C116.681 68.232 115.593 69.3192 114.233 70.4064C113.961 70.4064 113.961 70.6782 113.689 70.6782C113.417 70.6782 113.145 70.6782 113.145 70.4064C112.872 70.1346 112.872 69.591 113.417 69.3192C114.505 68.5038 115.593 67.4166 116.681 66.3294C116.953 66.0576 116.953 66.0576 117.225 66.0576C117.225 66.0576 117.769 66.3294 118.041 66.6012Z" fill="#DFECFD"/>
<path d="M121.577 70.9502C121.577 71.222 121.577 71.222 121.305 71.4938C120.217 72.581 118.857 73.94 117.769 75.0272C117.497 75.299 117.497 75.299 117.225 75.299C116.953 75.299 116.681 75.299 116.681 75.0272C116.409 74.7554 116.409 74.2118 116.681 73.94C117.769 72.8528 119.129 71.4938 120.217 70.4066C120.489 70.1348 120.489 70.1348 120.761 70.1348C121.033 70.1348 121.305 70.6784 121.577 70.9502Z" fill="#DFECFD"/>
<path d="M125.658 74.7552C125.658 75.027 125.658 75.027 125.386 75.2988C124.026 76.386 122.666 77.745 121.85 79.104C121.578 79.3758 121.578 79.3758 121.306 79.3758C121.034 79.3758 121.034 79.3758 120.762 79.104C120.49 78.8322 120.218 78.2886 120.49 78.0168C121.578 76.6578 122.938 75.2988 124.298 73.9398C124.298 73.9398 124.57 73.9398 124.57 73.668C125.114 74.2116 125.386 74.4834 125.658 74.7552Z" fill="#DFECFD"/>
<path d="M129.739 78.0177C129.739 78.0177 129.739 78.2895 129.739 78.0177C128.923 79.6485 128.107 81.2793 127.019 82.9101C126.747 83.1819 126.475 83.4537 126.203 83.4537H125.931C125.659 83.1819 125.387 82.6383 125.659 82.3665C126.475 80.7357 127.291 79.1049 128.107 77.7459L128.379 77.4741C128.923 77.4741 129.195 77.7459 129.739 78.0177Z" fill="#DFECFD"/>
<path d="M133.276 80.4637L132.459 85.3561C132.459 85.8997 131.915 86.1715 131.643 86.1715C131.099 86.1715 130.827 85.6279 130.827 85.0843L131.643 79.6483C131.643 79.3765 131.643 79.3765 131.915 79.3765C132.459 79.9201 132.731 80.1919 133.276 80.4637Z" fill="#DFECFD"/>
<path d="M138.989 82.6377C138.717 83.9967 138.445 85.6275 138.173 86.9865C138.173 87.2583 137.628 87.5301 137.356 87.5301C137.356 87.5301 137.356 87.5301 137.084 87.5301C136.54 87.5301 136.268 86.9865 136.54 86.4429C136.812 85.0839 137.084 83.4531 137.356 82.0941C137.356 82.0941 137.356 82.0941 137.356 81.8223C137.901 82.3659 138.445 82.6377 138.989 82.6377Z" fill="#DFECFD"/>
<path d="M98.4544 78.2893C102.21 78.2893 105.255 75.247 105.255 71.4942C105.255 67.7415 102.21 64.6992 98.4544 64.6992C94.6983 64.6992 91.6533 67.7415 91.6533 71.4942C91.6533 75.247 94.6983 78.2893 98.4544 78.2893Z" fill="white"/>
<path d="M98.4538 74.2124C99.9563 74.2124 101.174 72.9955 101.174 71.4944C101.174 69.9933 99.9563 68.7764 98.4538 68.7764C96.9514 68.7764 95.7334 69.9933 95.7334 71.4944C95.7334 72.9955 96.9514 74.2124 98.4538 74.2124Z" fill="#006CB7"/>
<path d="M183.058 157.654C182.786 158.198 182.514 158.47 181.97 158.741L174.624 161.731C173.536 162.275 172.448 162.818 171.632 163.634C170.816 164.449 170.272 165.265 170 166.352L167.007 173.69C166.735 174.778 165.375 175.321 164.559 174.778C164.287 174.506 163.743 174.234 163.743 173.962L149.597 142.977C149.325 142.433 149.325 141.89 149.597 141.618C149.869 141.074 150.685 140.803 151.501 141.074L182.514 155.208C183.058 155.752 183.33 156.839 183.058 157.654Z" fill="#001829"/>
<path d="M188.499 176.68C188.227 176.68 187.955 176.68 187.683 176.408L177.617 166.08C177.073 165.536 177.073 164.721 177.617 164.449C178.161 163.906 178.977 163.906 179.249 164.449L189.315 174.506C189.859 175.049 189.859 175.865 189.315 176.137C189.315 176.68 188.771 176.68 188.499 176.68Z" fill="#001829"/>
<path d="M178.161 176.68C177.889 176.68 177.617 176.68 177.345 176.409L172.721 171.788C172.176 171.244 172.176 170.429 172.721 170.157C173.265 169.614 174.081 169.614 174.353 170.157L178.978 174.778C179.522 175.321 179.522 176.137 178.978 176.409C178.978 176.68 178.705 176.68 178.161 176.68Z" fill="#001829"/>
<path d="M171.361 163.635C170.544 164.45 170 165.266 169.728 166.353L166.736 173.692C166.464 174.779 165.104 175.322 164.287 174.779C164.015 174.507 163.471 174.235 163.471 173.963L149.325 142.978C149.053 142.435 149.053 141.891 149.325 141.619L171.361 163.635Z" fill="#001829"/>
<defs>
<filter id="filter0_d_152_723" x="0.604652" y="0.841389" width="247.386" height="269.019" filterUnits="userSpaceOnUse" color-interpolation-filters="sRGB">
<feFlood flood-opacity="0" result="BackgroundImageFix"/>
<feColorMatrix in="SourceAlpha" type="matrix" values="0 0 0 0 0 0 0 0 0 0 0 0 0 0 0 0 0 0 127 0" result="hardAlpha"/>
<feOffset dy="30.6977"/>
<feGaussianBlur stdDeviation="30.6977"/>
<feColorMatrix type="matrix" values="0 0 0 0 0.397708 0 0 0 0 0.47749 0 0 0 0 0.575 0 0 0 0.18 0"/>
<feBlend mode="normal" in2="BackgroundImageFix" result="effect1_dropShadow_152_723"/>
<feBlend mode="normal" in="SourceGraphic" in2="effect1_dropShadow_152_723" result="shape"/>
</filter>
<linearGradient id="paint0_linear_152_723" x1="225.47" y1="236.673" x2="225.47" y2="194.277" gradientUnits="userSpaceOnUse">
<stop stop-color="#D1DFFF"/>
<stop offset="0.9913" stop-color="#A3BFFF"/>
</linearGradient>
</defs>
</svg>
