<svg width="137" height="133" viewBox="0 0 137 133" fill="none" xmlns="http://www.w3.org/2000/svg">
<g opacity="0.05" filter="url(#filter0_d_152_856)">
<rect x="20" y="16" width="97" height="90.2326" rx="12" fill="#001829"/>
</g>
<g filter="url(#filter1_d_152_856)">
<path d="M53.738 79.0649L49.2594 91.7758C48.7126 93.3275 49.8639 94.9537 51.509 94.9537C52.333 94.9537 53.0986 94.5285 53.534 93.8289L60.2721 83.0039" fill="white"/>
</g>
<g filter="url(#filter2_d_152_856)">
<path d="M86.6337 79.0649L91.1106 91.776C91.6571 93.3276 90.5058 94.9537 88.8607 94.9537C88.0366 94.9537 87.2709 94.5283 86.8355 93.8286L80.0996 83.0039" fill="white"/>
</g>
<g filter="url(#filter3_d_152_856)">
<path d="M99.19 56.2768C99.19 69.354 90.5343 80.411 78.6385 84.0252C76.4064 84.7039 74.0593 85.121 71.6332 85.2405C71.1552 85.2631 70.675 85.2766 70.1902 85.2766C54.1752 85.2766 41.1904 72.2941 41.1904 56.2768C41.1904 40.2618 54.1729 27.2793 70.1902 27.2793C72.6749 27.2793 75.0851 27.5927 77.3849 28.1789C78.501 28.463 79.5877 28.8125 80.6474 29.2228C91.497 33.4166 99.19 43.9482 99.19 56.2768Z" fill="white"/>
</g>
<path opacity="0.1" d="M70.1929 78.3164C82.365 78.3164 92.2324 68.449 92.2324 56.2769C92.2324 44.1048 82.365 34.2373 70.1929 34.2373C58.0208 34.2373 48.1533 44.1048 48.1533 56.2769C48.1533 68.449 58.0208 78.3164 70.1929 78.3164Z" fill="#001829"/>
<path opacity="0.8" d="M70.1925 71.7933C78.7622 71.7933 85.7093 64.8462 85.7093 56.2765C85.7093 47.7069 78.7622 40.7598 70.1925 40.7598C61.6229 40.7598 54.6758 47.7069 54.6758 56.2765C54.6758 64.8462 61.6229 71.7933 70.1925 71.7933Z" fill="white"/>
<path d="M70.1925 65.7033C75.3988 65.7033 79.6193 61.4828 79.6193 56.2765C79.6193 51.0702 75.3988 46.8496 70.1925 46.8496C64.9862 46.8496 60.7656 51.0702 60.7656 56.2765C60.7656 61.4828 64.9862 65.7033 70.1925 65.7033Z" fill="white"/>
<g opacity="0.19">
<path opacity="0.19" d="M106.57 32.0476L104 41.1926C103.899 41.5556 103.38 41.5421 103.297 41.1768L102.124 36.115L97.0894 35.114C96.7196 35.0395 96.6925 34.521 97.0533 34.4105L106.113 31.6034C106.388 31.5177 106.649 31.7703 106.57 32.0476Z" fill="url(#paint0_linear_152_856)"/>
<g opacity="0.19">
<path opacity="0.19" d="M27.3311 86.1149C28.6388 84.7148 29.9555 83.3259 31.2813 81.946C32.6003 80.5594 33.935 79.1863 35.2653 77.8132C36.5933 76.4356 37.9326 75.0692 39.2741 73.7051C40.6179 72.3433 41.9504 70.9679 43.301 69.6151C46.0044 66.9072 48.6874 64.1791 51.4134 61.496C54.1325 58.8062 56.8404 56.1005 59.5843 53.4355C59.9789 53.0545 60.6057 53.0635 60.989 53.4558C61.0702 53.5392 61.1333 53.6317 61.1784 53.7309L61.1807 53.7376L64.45 60.8715C64.9979 62.0597 65.5254 63.2547 66.0643 64.4474L67.6742 68.0256L66.0869 67.7032L70.4542 63.7146L74.8463 59.7531C77.7661 57.1039 80.7175 54.4884 83.6667 51.8685C85.1367 50.554 86.6226 49.2576 88.1061 47.9566C89.5897 46.6579 91.0688 45.3524 92.5636 44.0673C95.5443 41.4834 98.5363 38.9131 101.567 36.3833C98.7979 39.1971 95.9885 41.9682 93.1702 44.7256C91.7655 46.11 90.345 47.4764 88.9268 48.8495C87.5086 50.2203 86.095 51.5957 84.6655 52.953C81.8133 55.6767 78.9634 58.4026 76.0841 61.0969L71.7777 65.1508L67.4442 69.1755C67.0406 69.5497 66.4093 69.5272 66.035 69.1236C65.9628 69.0447 65.9042 68.9568 65.8614 68.8643L65.8569 68.853L64.2222 65.2861C63.6789 64.0957 63.1265 62.9097 62.5944 61.717L59.3769 54.5606L60.9732 54.8627C58.227 57.5255 55.4425 60.15 52.6715 62.7879C49.9072 65.4327 47.0979 68.0323 44.3111 70.6523C42.9177 71.9623 41.504 73.2519 40.1016 74.5551C38.6969 75.8561 37.2923 77.1525 35.8741 78.44C34.4604 79.7297 33.0489 81.0216 31.6217 82.2977C30.1968 83.5761 28.7673 84.85 27.3311 86.1149Z" fill="url(#paint1_linear_152_856)"/>
</g>
</g>
<path d="M28.2754 81.2699C29.5583 79.8449 30.8547 78.4335 32.1602 77.0333C33.4589 75.6264 34.7779 74.2375 36.0946 72.8486L38.0697 70.7653L40.0629 68.6978C41.3932 67.3224 42.7144 65.9358 44.0537 64.5694C45.3907 63.2008 46.7277 61.8322 48.0738 60.4727C49.4153 59.1086 50.7659 57.7535 52.1164 56.3984C54.8176 53.6883 57.5322 50.994 60.2626 48.3131C60.8038 47.781 61.6741 47.7901 62.2062 48.3312C62.3166 48.4439 62.4046 48.5724 62.47 48.7077L62.4812 48.7325C63.586 51.1044 64.6638 53.4876 65.7528 55.8663L68.9792 63.0182L66.7674 62.5695L71.1483 58.5968L75.5494 54.6466C78.494 52.0244 81.4431 49.4067 84.4193 46.816C85.9007 45.5151 87.4 44.2322 88.8949 42.9447C90.3898 41.6596 91.8801 40.3654 93.393 39.0982C94.9014 37.8266 96.403 36.5459 97.9272 35.2923C99.4446 34.0297 100.969 32.7761 102.511 31.5405C101.151 32.9745 99.7783 34.3927 98.3939 35.8019C97.0185 37.2178 95.6184 38.609 94.2272 40.0091C92.8406 41.4138 91.4291 42.7914 90.0245 44.1758C88.6198 45.5602 87.2174 46.9491 85.7992 48.3199C82.9741 51.0729 80.1242 53.7988 77.2675 56.5179L72.97 60.5809L68.6501 64.6213C68.0909 65.1444 67.2161 65.1151 66.693 64.5559C66.5893 64.4454 66.5081 64.3214 66.4472 64.1906L66.4382 64.1726L63.1779 57.0343C62.1047 54.6488 61.0202 52.2679 59.9628 49.8756L62.1814 50.295C59.4194 52.942 56.6439 55.5732 53.8526 58.1932C52.4569 59.5031 51.0612 60.8109 49.6588 62.1096C48.2587 63.415 46.8518 64.7092 45.4426 66.0034C44.0357 67.3021 42.6107 68.5783 41.197 69.8679L39.0708 71.798L36.9289 73.7099C35.4994 74.9838 34.0722 76.26 32.6269 77.5158C31.1884 78.7785 29.7387 80.0321 28.2754 81.2699Z" fill="#0095FB"/>
<path d="M105.156 29.1458L102.52 38.2728C102.416 38.6335 101.898 38.6178 101.817 38.2525L100.68 33.184L95.6524 32.1468C95.2826 32.0701 95.2601 31.5516 95.6208 31.4433L104.7 28.7016C104.976 28.6137 105.235 28.8707 105.156 29.1458Z" fill="#0095FB"/>
<path opacity="0.13" d="M90.8347 83.7589C88.5282 83.1163 86.5756 81.7297 85.2093 79.8921L85.2048 79.8944C84.5103 78.9564 83.9624 77.9035 83.6017 76.7671C83.5611 76.6251 83.5205 76.4831 83.4799 76.341C83.3514 75.8698 83.2567 75.385 83.1936 74.889C83.1237 74.3276 83.0989 73.7571 83.1259 73.1799C83.1395 72.9207 83.1575 72.6614 83.1846 72.3976C83.401 70.4788 84.118 68.745 85.1935 67.2997C87.0469 64.8083 89.9622 63.1872 93.1909 63.0451C93.6846 63.0248 94.0747 63.4532 94.0183 63.9402L93.8582 65.3607L93.2292 70.9185L92.7963 74.7109L92.3927 78.2891L91.8493 83.0713C91.793 83.5605 91.3127 83.8897 90.8347 83.7589Z" fill="#0095FB"/>
<path d="M94.196 84.0138C91.8895 83.3712 89.9369 81.9846 88.5706 80.147L88.5661 80.1493C87.8716 79.2113 87.3238 78.1584 86.963 77.022C86.9224 76.88 86.8818 76.7379 86.8412 76.5959C86.7127 76.1247 86.6181 75.6399 86.5549 75.1439C86.485 74.5825 86.4602 74.012 86.4873 73.4348C86.5008 73.1755 86.5188 72.9162 86.5459 72.6524C86.7623 70.7337 87.4793 68.9999 88.5548 67.5546C90.4082 65.0632 93.3235 63.4421 96.5522 63.3C97.046 63.2797 97.436 63.7081 97.3797 64.1951L97.2196 65.6156L96.5905 71.1734L96.1576 74.9658L95.754 78.5439L95.2106 83.3261C95.1565 83.8131 94.674 84.1446 94.196 84.0138Z" fill="#0095FB"/>
<path opacity="0.13" d="M99.6298 85.8921C99.1382 85.9169 98.7459 85.484 98.8023 84.997L99.402 79.703L99.8056 76.1248L99.8101 76.0864C99.8484 75.7527 100.096 75.4732 100.423 75.3942L108.653 73.453C109.054 73.365 109.442 73.577 109.586 73.9332C109.611 73.9963 109.629 74.0617 109.638 74.1384C109.729 74.9208 109.731 75.7234 109.636 76.5374C109.6 76.8463 109.555 77.1484 109.492 77.4483C108.534 82.2192 104.425 85.6869 99.6298 85.8921Z" fill="#AE50FE"/>
<path d="M97.5087 84.3838C97.0171 84.4086 96.6248 83.9757 96.6812 83.4887L97.2809 78.1947L97.6845 74.6165L97.689 74.5781C97.7274 74.2444 97.9754 73.9649 98.3023 73.8859L106.532 71.9447C106.933 71.8567 107.321 72.0687 107.465 72.4249C107.49 72.488 107.508 72.5534 107.517 72.6301C107.607 73.4125 107.61 74.2151 107.515 75.0291C107.479 75.338 107.434 75.6401 107.371 75.94C106.41 80.7109 102.302 84.1786 97.5087 84.3838Z" fill="#AE50FE"/>
<path opacity="0.13" d="M107.429 68.4701L100.406 70.1273C99.8627 70.2581 99.3554 69.8049 99.4231 69.2547L99.4817 68.7609L100.111 63.2031L100.212 62.29C100.266 61.8052 100.744 61.476 101.22 61.6023C101.982 61.8142 102.708 62.1074 103.38 62.4726C105.258 63.4782 106.782 65.0385 107.754 66.9076C107.833 67.0541 107.907 67.2075 107.975 67.3563C108.189 67.814 107.919 68.3551 107.429 68.4701Z" fill="#FFA35A"/>
<path d="M106.067 70.5399L99.0438 72.1971C98.5004 72.3279 97.9931 71.8747 98.0608 71.3245L98.1194 70.8308L98.7485 65.273L98.8499 64.3598C98.904 63.8751 99.382 63.5459 99.8578 63.6721C100.62 63.8841 101.346 64.1772 102.018 64.5424C103.896 65.548 105.42 67.1083 106.392 68.9774C106.471 69.124 106.545 69.2773 106.613 69.4261C106.827 69.8838 106.556 70.4249 106.067 70.5399Z" fill="#FFA35A"/>
<g opacity="0.1">
<path opacity="0.1" d="M96.5886 71.1691L86.4854 73.4328C86.4989 73.1735 86.5169 72.9143 86.544 72.6505C86.7604 70.7317 87.4774 68.9979 88.5529 67.5526L97.2177 65.6113L96.5886 71.1691Z" fill="#FEFEFE"/>
<path opacity="0.1" d="M106.392 68.975L98.1191 70.8306L98.7482 65.2728L102.018 64.54C103.896 65.5456 105.42 67.1059 106.392 68.975Z" fill="#FEFEFE"/>
<path opacity="0.1" d="M95.7517 78.5396L88.5705 80.1449L88.566 80.1472C87.8715 79.2093 87.3236 78.1563 86.9629 77.0199L96.1575 74.9614L95.7517 78.5396Z" fill="#FEFEFE"/>
<path opacity="0.1" d="M107.368 75.9421L97.2783 78.1945L97.6819 74.6164L107.463 72.4248C107.488 72.4879 107.506 72.5533 107.515 72.63C107.605 73.4124 107.607 74.215 107.512 75.029C107.479 75.3401 107.431 75.64 107.368 75.9421Z" fill="#FEFEFE"/>
</g>
<defs>
<filter id="filter0_d_152_856" x="0.261629" y="0.49128" width="136.477" height="129.709" filterUnits="userSpaceOnUse" color-interpolation-filters="sRGB">
<feFlood flood-opacity="0" result="BackgroundImageFix"/>
<feColorMatrix in="SourceAlpha" type="matrix" values="0 0 0 0 0 0 0 0 0 0 0 0 0 0 0 0 0 0 127 0" result="hardAlpha"/>
<feOffset dy="4.22965"/>
<feGaussianBlur stdDeviation="9.86919"/>
<feColorMatrix type="matrix" values="0 0 0 0 0.397708 0 0 0 0 0.47749 0 0 0 0 0.575 0 0 0 0.12 0"/>
<feBlend mode="normal" in2="BackgroundImageFix" result="effect1_dropShadow_152_856"/>
<feBlend mode="normal" in="SourceGraphic" in2="effect1_dropShadow_152_856" result="shape"/>
</filter>
<filter id="filter1_d_152_856" x="28.4889" y="75.3135" width="52.4167" height="57.155" filterUnits="userSpaceOnUse" color-interpolation-filters="sRGB">
<feFlood flood-opacity="0" result="BackgroundImageFix"/>
<feColorMatrix in="SourceAlpha" type="matrix" values="0 0 0 0 0 0 0 0 0 0 0 0 0 0 0 0 0 0 127 0" result="hardAlpha"/>
<feOffset dy="16.8817"/>
<feGaussianBlur stdDeviation="10.3166"/>
<feColorMatrix type="matrix" values="0 0 0 0 0.397708 0 0 0 0 0.47749 0 0 0 0 0.575 0 0 0 0.35 0"/>
<feBlend mode="normal" in2="BackgroundImageFix" result="effect1_dropShadow_152_856"/>
<feBlend mode="normal" in="SourceGraphic" in2="effect1_dropShadow_152_856" result="shape"/>
</filter>
<filter id="filter2_d_152_856" x="59.4664" y="75.3135" width="52.4148" height="57.155" filterUnits="userSpaceOnUse" color-interpolation-filters="sRGB">
<feFlood flood-opacity="0" result="BackgroundImageFix"/>
<feColorMatrix in="SourceAlpha" type="matrix" values="0 0 0 0 0 0 0 0 0 0 0 0 0 0 0 0 0 0 127 0" result="hardAlpha"/>
<feOffset dy="16.8817"/>
<feGaussianBlur stdDeviation="10.3166"/>
<feColorMatrix type="matrix" values="0 0 0 0 0.397708 0 0 0 0 0.47749 0 0 0 0 0.575 0 0 0 0.35 0"/>
<feBlend mode="normal" in2="BackgroundImageFix" result="effect1_dropShadow_152_856"/>
<feBlend mode="normal" in="SourceGraphic" in2="effect1_dropShadow_152_856" result="shape"/>
</filter>
<filter id="filter3_d_152_856" x="20.5573" y="23.5278" width="99.2663" height="99.2634" filterUnits="userSpaceOnUse" color-interpolation-filters="sRGB">
<feFlood flood-opacity="0" result="BackgroundImageFix"/>
<feColorMatrix in="SourceAlpha" type="matrix" values="0 0 0 0 0 0 0 0 0 0 0 0 0 0 0 0 0 0 127 0" result="hardAlpha"/>
<feOffset dy="16.8817"/>
<feGaussianBlur stdDeviation="10.3166"/>
<feColorMatrix type="matrix" values="0 0 0 0 0.397708 0 0 0 0 0.47749 0 0 0 0 0.575 0 0 0 0.35 0"/>
<feBlend mode="normal" in2="BackgroundImageFix" result="effect1_dropShadow_152_856"/>
<feBlend mode="normal" in="SourceGraphic" in2="effect1_dropShadow_152_856" result="shape"/>
</filter>
<linearGradient id="paint0_linear_152_856" x1="96.7503" y1="36.1753" x2="106.407" y2="36.5715" gradientUnits="userSpaceOnUse">
<stop stop-color="#735CD2"/>
<stop offset="1" stop-color="#8F6ACC"/>
</linearGradient>
<linearGradient id="paint1_linear_152_856" x1="27.3889" y1="59.7267" x2="101.507" y2="62.7713" gradientUnits="userSpaceOnUse">
<stop stop-color="#735CD2"/>
<stop offset="1" stop-color="#8F6ACC"/>
</linearGradient>
</defs>
</svg>
