<svg width="100" height="108" viewBox="0 0 100 108" fill="none" xmlns="http://www.w3.org/2000/svg">
<g filter="url(#filter0_d_152_689)">
<path d="M67.896 67.9995H31.7086C28.8031 67.9995 26.4258 65.638 26.4258 62.7517V18.8015C26.4258 15.9152 28.8031 13.5537 31.7086 13.5537H67.896C70.8016 13.5537 73.1789 15.9152 73.1789 18.8015V62.7517C73.1789 65.638 70.8016 67.9995 67.896 67.9995Z" fill="white"/>
</g>
<path opacity="0.1" d="M58.6507 52.912H33.4252C32.6328 52.912 32.1045 52.256 32.1045 51.6C32.1045 50.8129 32.7648 50.2881 33.4252 50.2881H58.6507C59.4432 50.2881 59.9714 50.9441 59.9714 51.6C59.9714 52.256 59.3111 52.912 58.6507 52.912Z" fill="#001829"/>
<path opacity="0.1" d="M44.5192 60.39H33.4252C32.6328 60.39 32.1045 59.734 32.1045 59.0781C32.1045 58.4221 32.7648 57.7661 33.4252 57.7661H44.5192C45.3116 57.7661 45.8399 58.4221 45.8399 59.0781C45.8399 59.8652 45.3116 60.39 44.5192 60.39Z" fill="#001829"/>
<path d="M57.1983 42.6786L52.7079 43.3346C52.4438 43.3346 52.3117 43.2034 52.1796 43.0722L52.0475 42.5474L49.142 31.2647L48.8779 29.1656L45.9723 42.285L45.8402 42.941C45.8402 43.2034 45.5761 43.3346 45.3119 43.2034L41.4819 42.8098H41.0857C40.8215 42.8098 40.6895 42.5474 40.6895 42.285L40.8215 41.7602L43.7271 23.1306L43.8592 22.3434C43.8592 22.2123 43.9912 22.0811 44.2554 22.0811H53.3683C53.5003 22.0811 53.7645 22.2123 53.7645 22.3434L53.8965 22.9994V23.1306L57.5945 41.7602V42.0226C57.5945 42.4162 57.4625 42.5474 57.1983 42.6786Z" fill="#DDE1F0"/>
<path d="M53.8968 26.5418C52.7081 26.0171 51.7837 25.2299 50.9912 24.1803C50.8592 24.0492 50.9912 23.918 51.1233 23.7868C51.2554 23.6556 51.3874 23.7868 51.5195 23.918C52.1799 24.9675 52.9723 25.6235 54.0289 26.0171C54.1609 26.1483 54.293 26.2795 54.1609 26.4107C54.1609 26.4107 54.0289 26.5418 53.8968 26.5418Z" fill="#C5CCDE"/>
<path d="M43.9907 26.5418C45.1794 26.0171 46.1039 25.2299 46.8963 24.1803C47.0284 24.0492 46.8963 23.918 46.7642 23.7868C46.6321 23.6556 46.5001 23.7868 46.368 23.918C45.7076 24.9675 44.9152 25.6235 43.8586 26.0171C43.7266 26.1483 43.5945 26.2795 43.7266 26.4107C43.7266 26.4107 43.8586 26.5418 43.9907 26.5418Z" fill="#C5CCDE"/>
<path d="M48.8774 27.5915C48.7454 27.5915 48.6133 27.4603 48.6133 27.3291V23.3932C48.6133 23.262 48.7454 23.1309 48.8774 23.1309C49.0095 23.1309 49.1416 23.262 49.1416 23.3932V27.3291C49.1416 27.4603 49.0095 27.5915 48.8774 27.5915Z" fill="#C5CCDE"/>
<path d="M53.897 23.2624H43.7275L43.8596 22.4753C43.8596 22.3441 43.9917 22.2129 44.2558 22.2129H53.3687C53.5008 22.2129 53.7649 22.3441 53.7649 22.4753L53.897 23.2624Z" fill="#C5CCDE"/>
<path d="M45.8405 42.4164L45.7084 43.0723C45.7084 43.3347 45.4442 43.4659 45.1801 43.3347L41.35 42.9412H40.9538C40.6897 42.9412 40.5576 42.6788 40.5576 42.4164L40.6897 41.8916L45.8405 42.4164Z" fill="#C5CCDE"/>
<path d="M57.1986 42.6784L52.7082 43.3344C52.4441 43.3344 52.312 43.2032 52.1799 43.072L52.0479 42.5472L57.4628 42.0225V42.2849C57.5948 42.416 57.4628 42.5472 57.1986 42.6784Z" fill="#C5CCDE"/>
<defs>
<filter id="filter0_d_152_689" x="0.118362" y="0.400002" width="99.3678" height="107.061" filterUnits="userSpaceOnUse" color-interpolation-filters="sRGB">
<feFlood flood-opacity="0" result="BackgroundImageFix"/>
<feColorMatrix in="SourceAlpha" type="matrix" values="0 0 0 0 0 0 0 0 0 0 0 0 0 0 0 0 0 0 127 0" result="hardAlpha"/>
<feOffset dy="13.1537"/>
<feGaussianBlur stdDeviation="13.1537"/>
<feColorMatrix type="matrix" values="0 0 0 0 0.397708 0 0 0 0 0.47749 0 0 0 0 0.575 0 0 0 0.18 0"/>
<feBlend mode="normal" in2="BackgroundImageFix" result="effect1_dropShadow_152_689"/>
<feBlend mode="normal" in="SourceGraphic" in2="effect1_dropShadow_152_689" result="shape"/>
</filter>
</defs>
</svg>
