<svg width="233" height="127" viewBox="0 0 233 127" fill="none" xmlns="http://www.w3.org/2000/svg">
<g filter="url(#filter0_d_152_677)">
<path d="M67.9956 76.9995H31.8082C28.9027 76.9995 26.5254 74.638 26.5254 71.7517V27.8015C26.5254 24.9152 28.9027 22.5537 31.8082 22.5537H67.9956C70.9012 22.5537 73.2785 24.9152 73.2785 27.8015V71.7517C73.4105 74.638 71.0333 76.9995 67.9956 76.9995Z" fill="white"/>
</g>
<path opacity="0.1" d="M58.7511 61.912H33.6576C32.8652 61.912 32.3369 61.256 32.3369 60.6C32.3369 59.8129 32.9973 59.2881 33.6576 59.2881H58.8832C59.6756 59.2881 60.2039 59.9441 60.2039 60.6C60.0718 61.256 59.5435 61.912 58.7511 61.912Z" fill="#001829"/>
<path opacity="0.1" d="M44.7516 69.39H33.6576C32.8652 69.39 32.3369 68.734 32.3369 68.0781C32.3369 67.4221 32.9973 66.7661 33.6576 66.7661H44.7516C45.544 66.7661 46.0723 67.4221 46.0723 68.0781C45.9402 68.8652 45.4119 69.39 44.7516 69.39Z" fill="#001829"/>
<path d="M62.8444 35.0174C62.7123 34.8862 62.5803 34.755 62.4482 34.755C60.8633 33.4431 59.4106 32.1311 57.8257 30.9504C57.6936 30.8192 57.4295 30.688 57.1654 30.688C55.9767 30.688 54.7881 30.688 53.5994 30.688C53.0712 30.688 52.807 30.9504 52.807 31.4752C52.6749 32.6559 51.7505 33.7055 50.5618 33.7055C49.2411 33.7055 48.1845 32.7871 48.0525 31.6064C47.9204 30.4256 47.6563 30.8192 43.9583 30.688C43.5621 30.688 43.2979 30.8192 42.9017 31.0816C41.3169 32.3935 39.732 33.7055 38.2792 34.8862C38.1472 34.8862 38.1472 35.0174 38.0151 35.0174C37.4868 35.411 37.4868 35.6734 37.883 36.1982C38.6754 37.1165 39.4679 38.0349 40.1282 38.9532C40.5244 39.3468 40.6565 39.478 41.4489 39.0844C41.8451 38.9532 42.5055 38.5597 43.2979 38.1661V49.8424C43.2979 50.6296 43.43 50.892 44.3545 50.892C48.3166 50.892 52.2787 50.892 56.2409 50.892C57.1654 50.892 57.2974 50.7608 57.2974 49.8424V38.1661C58.2219 38.5597 58.8823 38.9532 59.2785 39.0844C60.0709 39.478 60.203 39.3468 60.5992 38.9532C61.3916 38.0349 62.1841 37.1165 62.9765 36.1982C63.3727 35.8046 63.3727 35.411 62.8444 35.0174Z" fill="#DDE1F0"/>
<path d="M55.7131 38.953L54.3924 39.8714C54.2604 40.0026 53.8641 40.0026 53.7321 39.8714L52.4114 38.953C52.2793 38.8218 52.2793 38.6906 52.2793 38.6906V36.5915C52.2793 36.4603 52.4114 36.3291 52.5434 36.3291H55.5811C55.7131 36.3291 55.8452 36.4603 55.8452 36.5915V38.6906C55.8452 38.8218 55.7131 38.953 55.7131 38.953Z" fill="#C5CCDE"/>
<path d="M41.7126 39.084C40.9202 39.4776 40.7881 39.3464 40.3919 38.9528C39.5995 38.0344 38.807 37.1161 38.1467 36.1977C37.7505 35.6729 37.7505 35.4105 38.2788 35.0169C38.4108 35.0169 38.4108 34.8857 38.5429 34.8857L41.7126 39.084Z" fill="#C5CCDE"/>
<path d="M63.1091 36.1985C62.3167 37.1169 61.5243 38.0352 60.7318 38.9536C60.3356 39.3472 60.2036 39.3472 59.4111 39.0848L62.5808 34.7554C62.7129 34.8866 62.845 35.0178 62.977 35.0178C63.5053 35.4113 63.5053 35.8049 63.1091 36.1985Z" fill="#C5CCDE"/>
<g filter="url(#filter1_d_152_677)">
<path d="M200.896 76.9995H164.709C161.803 76.9995 159.426 74.638 159.426 71.7517V27.8015C159.426 24.9152 161.803 22.5537 164.709 22.5537H200.896C203.802 22.5537 206.179 24.9152 206.179 27.8015V71.7517C206.179 74.638 203.802 76.9995 200.896 76.9995Z" fill="white"/>
</g>
<path opacity="0.1" d="M191.651 61.912H166.425C165.633 61.912 165.104 61.256 165.104 60.6C165.104 59.8129 165.765 59.2881 166.425 59.2881H191.651C192.443 59.2881 192.971 59.9441 192.971 60.6C192.971 61.256 192.311 61.912 191.651 61.912Z" fill="#001829"/>
<path opacity="0.1" d="M177.519 69.39H166.425C165.633 69.39 165.104 68.734 165.104 68.0781C165.104 67.4221 165.765 66.7661 166.425 66.7661H177.519C178.312 66.7661 178.84 67.4221 178.84 68.0781C178.84 68.8652 178.312 69.39 177.519 69.39Z" fill="#001829"/>
<path d="M190.198 51.6786L185.708 52.3346C185.444 52.3346 185.312 52.2034 185.18 52.0722L185.048 51.5474L182.142 40.2647L181.878 38.1656L178.972 51.285L178.84 51.941C178.84 52.2034 178.576 52.3346 178.312 52.2034L174.482 51.8098H174.086C173.822 51.8098 173.689 51.5474 173.689 51.285L173.822 50.7602L176.727 32.1306L176.859 31.3434C176.859 31.2123 176.991 31.0811 177.255 31.0811H186.368C186.5 31.0811 186.764 31.2123 186.764 31.3434L186.897 31.9994V32.1306L190.595 50.7602V51.0226C190.595 51.4162 190.462 51.5474 190.198 51.6786Z" fill="#DDE1F0"/>
<path d="M186.897 35.5418C185.708 35.0171 184.784 34.2299 183.991 33.1803C183.859 33.0492 183.991 32.918 184.123 32.7868C184.255 32.6556 184.387 32.7868 184.52 32.918C185.18 33.9675 185.972 34.6235 187.029 35.0171C187.161 35.1483 187.293 35.2795 187.161 35.4107C187.161 35.4107 187.029 35.5418 186.897 35.5418Z" fill="#C5CCDE"/>
<path d="M176.991 35.5418C178.179 35.0171 179.104 34.2299 179.896 33.1803C180.028 33.0492 179.896 32.918 179.764 32.7868C179.632 32.6556 179.5 32.7868 179.368 32.918C178.708 33.9675 177.915 34.6235 176.859 35.0171C176.727 35.1483 176.595 35.2795 176.727 35.4107C176.727 35.4107 176.859 35.5418 176.991 35.5418Z" fill="#C5CCDE"/>
<path d="M181.877 36.5915C181.745 36.5915 181.613 36.4603 181.613 36.3291V32.3932C181.613 32.262 181.745 32.1309 181.877 32.1309C182.009 32.1309 182.142 32.262 182.142 32.3932V36.3291C182.142 36.4603 182.009 36.5915 181.877 36.5915Z" fill="#C5CCDE"/>
<path d="M186.897 32.2624H176.728L176.86 31.4753C176.86 31.3441 176.992 31.2129 177.256 31.2129H186.369C186.501 31.2129 186.765 31.3441 186.765 31.4753L186.897 32.2624Z" fill="#C5CCDE"/>
<path d="M178.84 51.4164L178.708 52.0723C178.708 52.3347 178.444 52.4659 178.18 52.3347L174.35 51.9412H173.954C173.69 51.9412 173.558 51.6788 173.558 51.4164L173.69 50.8916L178.84 51.4164Z" fill="#C5CCDE"/>
<path d="M190.199 51.6784L185.708 52.3344C185.444 52.3344 185.312 52.2032 185.18 52.072L185.048 51.5472L190.463 51.0225V51.2849C190.595 51.416 190.463 51.5472 190.199 51.6784Z" fill="#C5CCDE"/>
<g filter="url(#filter2_d_152_677)">
<path d="M140.421 86.7105H92.2574C88.2966 86.7105 85.1279 83.5628 85.1279 79.6283V21.0822C85.1279 17.1476 88.2966 14 92.2574 14H140.421C144.382 14 147.551 17.1476 147.551 21.0822V79.6283C147.392 83.5628 144.224 86.7105 140.421 86.7105Z" fill="white"/>
</g>
<path opacity="0.1" d="M128.064 66.5654H94.6344C93.6838 66.5654 92.8916 65.7785 92.8916 64.8342C92.8916 63.8899 93.6838 63.103 94.6344 63.103H128.064C129.014 63.103 129.807 63.8899 129.807 64.8342C129.807 65.7785 129.014 66.5654 128.064 66.5654Z" fill="#001829"/>
<path opacity="0.1" d="M109.369 76.4805H94.6344C93.6838 76.4805 92.8916 75.6936 92.8916 74.7493C92.8916 73.805 93.6838 73.0181 94.6344 73.0181H109.369C110.319 73.0181 111.111 73.805 111.111 74.7493C110.953 75.6936 110.319 76.4805 109.369 76.4805Z" fill="#001829"/>
<path d="M136.143 43.9023C135.985 43.5876 135.826 43.2728 135.668 43.1154C135.034 42.3285 134.242 41.5416 132.816 41.0695C130.915 40.4399 129.331 40.2826 127.905 40.1252C127.588 40.1252 127.113 40.1252 126.796 39.9678C122.518 39.4956 119.032 38.8661 111.428 29.4232C110.636 28.4789 110.319 27.5346 109.368 26.5903C108.576 25.8034 107.15 26.7477 105.407 27.0625C105.09 27.2198 104.615 27.2198 104.298 27.2198C102.872 27.2198 101.288 27.0625 99.8621 26.9051C97.8024 26.7477 99.0699 25.646 96.535 41.0695C96.3765 42.1711 96.2181 43.4302 96.0597 44.5319C96.0597 45.4762 95.9012 46.5778 96.0597 47.5221C96.0597 47.9943 96.0597 48.6238 96.6934 48.6238C103.189 49.2533 107.308 48.9386 117.607 48.9386C122.835 48.9386 127.905 48.9386 132.975 47.9943L134.242 47.8369C135.193 47.6795 136.46 47.3647 136.46 46.5778C136.619 45.7909 136.46 44.8466 136.143 43.9023Z" fill="#0095FB"/>
<path d="M128.063 40.1258L126.954 43.5882C120.3 43.2734 113.487 39.1815 110.002 33.8305C108.734 31.9419 107.784 29.8959 106.358 28.3221C106.358 28.3221 105.883 27.85 105.407 27.3778C107.15 27.0631 108.417 25.9614 109.368 26.9057C110.002 27.5352 110.319 28.1647 110.794 28.7943C110.952 28.9516 111.111 29.2664 111.269 29.4238L111.428 29.5812C111.903 30.2107 112.378 30.6829 112.854 31.155C113.012 31.3124 113.17 31.4698 113.329 31.6271C113.804 32.2567 114.279 32.7288 114.755 33.201C114.913 33.3583 115.072 33.5157 115.23 33.6731C115.705 34.1453 116.181 34.6174 116.656 35.0895C116.814 35.2469 116.973 35.4043 117.131 35.5617C117.607 36.0338 118.082 36.3486 118.557 36.6634C118.716 36.8207 119.032 36.9781 119.191 37.1355C119.508 37.4503 119.983 37.6077 120.3 37.9224C120.617 38.0798 120.775 38.2372 121.092 38.3946C121.884 38.7093 122.518 39.0241 123.152 39.3389C123.469 39.4962 123.627 39.4962 123.944 39.4962C125.053 39.811 126.004 39.811 127.113 39.9684C127.271 40.1258 127.588 40.1258 128.063 40.1258Z" fill="#006CB7"/>
<path d="M136.618 46.8924C136.618 47.6793 135.351 47.9941 134.4 48.1515L133.133 48.3088C128.063 49.2531 122.835 49.2531 117.765 49.2531C107.467 49.2531 103.347 49.5679 96.8515 48.9384C96.3762 48.9384 96.3762 48.3088 96.2178 47.8367C96.2178 46.8924 96.2178 45.7907 96.2178 44.8464C99.8617 45.1612 115.388 45.9481 127.112 44.6891C130.439 44.3743 133.291 43.9021 135.668 43.1152C135.826 43.43 135.985 43.5874 136.143 43.9021C136.46 44.8464 136.618 45.7907 136.618 46.8924Z" fill="#DFECFD"/>
<path d="M136.143 43.9022C133.767 44.6891 131.232 45.1612 128.697 45.476C128.222 45.476 127.905 45.476 127.588 45.3186C127.429 45.1612 127.271 44.8465 127.271 44.6891C127.271 44.5317 127.271 44.3743 127.271 44.3743C127.112 42.9579 126.954 41.5414 127.113 40.125C128.855 40.2824 130.756 40.4398 133.133 41.2267C134.559 41.6988 135.351 42.3283 135.985 43.2726C135.826 43.2726 135.985 43.5874 136.143 43.9022Z" fill="#DFECFD"/>
<path d="M111.27 29.2662C111.27 29.4236 111.27 29.4236 111.27 29.2662L109.527 30.6827C109.527 30.6827 109.369 30.8401 109.21 30.8401C109.052 30.8401 108.893 30.8401 108.893 30.6827C108.735 30.5253 108.735 30.2105 108.893 30.0532L110.636 28.6367C110.636 28.6367 110.636 28.6367 110.794 28.6367C110.953 28.9515 111.111 29.1089 111.27 29.2662Z" fill="#DFECFD"/>
<path d="M113.17 31.6271C113.17 31.6271 113.17 31.7845 113.012 31.7845C112.537 32.414 111.903 32.8861 111.269 33.3583C111.269 33.3583 111.111 33.5157 110.952 33.5157C110.794 33.5157 110.635 33.5157 110.635 33.3583C110.477 33.2009 110.477 32.8861 110.635 32.7288C111.269 32.2566 111.744 31.7845 112.378 31.1549C112.537 30.9976 112.537 30.9976 112.695 30.9976C112.853 31.3123 113.012 31.4697 113.17 31.6271Z" fill="#DFECFD"/>
<path d="M115.072 33.673C115.072 33.8304 115.072 33.8304 114.913 33.8304C114.28 34.4599 113.804 35.0894 113.171 35.5616C113.012 35.719 113.012 35.719 112.854 35.719C112.695 35.719 112.695 35.719 112.537 35.5616C112.378 35.4042 112.378 35.0894 112.537 34.932C113.171 34.3025 113.646 33.673 114.28 33.2008C114.28 33.2008 114.438 33.0435 114.596 33.0435C114.755 33.3582 114.913 33.5156 115.072 33.673Z" fill="#DFECFD"/>
<path d="M117.132 35.5607C117.132 35.7181 117.132 35.7181 116.973 35.7181C116.339 36.1902 115.706 36.8197 115.072 37.6066C114.913 37.764 114.913 37.764 114.755 37.764C114.597 37.764 114.597 37.764 114.438 37.6066C114.28 37.4493 114.28 37.1345 114.438 36.9771C115.072 36.1902 115.706 35.5607 116.339 34.9312H116.498C116.656 35.2459 116.815 35.5607 117.132 35.5607Z" fill="#DFECFD"/>
<path d="M119.032 37.2921C118.557 38.079 118.082 38.8659 117.765 39.6529C117.765 39.8102 117.606 39.8102 117.448 39.8102H117.289C117.131 39.6529 116.973 39.4955 117.131 39.1807C117.606 38.3938 117.923 37.6069 118.399 36.82C118.399 36.82 118.399 36.6626 118.557 36.6626C118.715 36.9774 118.874 37.1347 119.032 37.2921Z" fill="#DFECFD"/>
<path d="M120.934 38.394L120.617 40.9121C120.617 41.0695 120.459 41.2269 120.142 41.2269C119.984 41.2269 119.825 40.9121 119.825 40.7547L120.3 38.0793C120.3 38.0793 120.3 37.9219 120.459 37.9219C120.459 38.0793 120.617 38.2366 120.934 38.394Z" fill="#DFECFD"/>
<path d="M123.785 39.4963C123.627 40.2832 123.627 40.9127 123.468 41.6996C123.468 41.857 123.31 42.0144 122.993 42.0144C122.993 42.0144 122.993 42.0144 122.834 42.0144C122.676 42.0144 122.518 41.6996 122.518 41.5422C122.676 40.7553 122.834 40.1258 122.834 39.3389C123.151 39.3389 123.468 39.4963 123.785 39.4963Z" fill="#DFECFD"/>
<path d="M103.506 37.2927C105.343 37.2927 106.833 35.813 106.833 33.9876C106.833 32.1623 105.343 30.6826 103.506 30.6826C101.668 30.6826 100.179 32.1623 100.179 33.9876C100.179 35.813 101.668 37.2927 103.506 37.2927Z" fill="white"/>
<path d="M103.506 35.4032C104.293 35.4032 104.932 34.769 104.932 33.9868C104.932 33.2045 104.293 32.5703 103.506 32.5703C102.718 32.5703 102.08 33.2045 102.08 33.9868C102.08 34.769 102.718 35.4032 103.506 35.4032Z" fill="#006CB7"/>
<defs>
<filter id="filter0_d_152_677" x="0.217972" y="9.4" width="99.3736" height="107.061" filterUnits="userSpaceOnUse" color-interpolation-filters="sRGB">
<feFlood flood-opacity="0" result="BackgroundImageFix"/>
<feColorMatrix in="SourceAlpha" type="matrix" values="0 0 0 0 0 0 0 0 0 0 0 0 0 0 0 0 0 0 127 0" result="hardAlpha"/>
<feOffset dy="13.1537"/>
<feGaussianBlur stdDeviation="13.1537"/>
<feColorMatrix type="matrix" values="0 0 0 0 0.397708 0 0 0 0 0.47749 0 0 0 0 0.575 0 0 0 0.18 0"/>
<feBlend mode="normal" in2="BackgroundImageFix" result="effect1_dropShadow_152_677"/>
<feBlend mode="normal" in="SourceGraphic" in2="effect1_dropShadow_152_677" result="shape"/>
</filter>
<filter id="filter1_d_152_677" x="133.118" y="9.4" width="99.3678" height="107.061" filterUnits="userSpaceOnUse" color-interpolation-filters="sRGB">
<feFlood flood-opacity="0" result="BackgroundImageFix"/>
<feColorMatrix in="SourceAlpha" type="matrix" values="0 0 0 0 0 0 0 0 0 0 0 0 0 0 0 0 0 0 127 0" result="hardAlpha"/>
<feOffset dy="13.1537"/>
<feGaussianBlur stdDeviation="13.1537"/>
<feColorMatrix type="matrix" values="0 0 0 0 0.397708 0 0 0 0 0.47749 0 0 0 0 0.575 0 0 0 0.18 0"/>
<feBlend mode="normal" in2="BackgroundImageFix" result="effect1_dropShadow_152_677"/>
<feBlend mode="normal" in="SourceGraphic" in2="effect1_dropShadow_152_677" result="shape"/>
</filter>
<filter id="filter2_d_152_677" x="58.8205" y="0.846291" width="115.038" height="125.325" filterUnits="userSpaceOnUse" color-interpolation-filters="sRGB">
<feFlood flood-opacity="0" result="BackgroundImageFix"/>
<feColorMatrix in="SourceAlpha" type="matrix" values="0 0 0 0 0 0 0 0 0 0 0 0 0 0 0 0 0 0 127 0" result="hardAlpha"/>
<feOffset dy="13.1537"/>
<feGaussianBlur stdDeviation="13.1537"/>
<feColorMatrix type="matrix" values="0 0 0 0 0.397708 0 0 0 0 0.47749 0 0 0 0 0.575 0 0 0 0.18 0"/>
<feBlend mode="normal" in2="BackgroundImageFix" result="effect1_dropShadow_152_677"/>
<feBlend mode="normal" in="SourceGraphic" in2="effect1_dropShadow_152_677" result="shape"/>
</filter>
</defs>
</svg>
