<svg width="116" height="127" viewBox="0 0 116 127" fill="none" xmlns="http://www.w3.org/2000/svg">
<g filter="url(#filter0_d_152_702)">
<path d="M82.4211 86.7105H34.2574C30.2966 86.7105 27.1279 83.5628 27.1279 79.6283V21.0822C27.1279 17.1476 30.2966 14 34.2574 14H82.4211C86.3819 14 89.5506 17.1476 89.5506 21.0822V79.6283C89.3922 83.5628 86.2235 86.7105 82.4211 86.7105Z" fill="white"/>
</g>
<path opacity="0.1" d="M70.0638 66.5654H36.6344C35.6838 66.5654 34.8916 65.7785 34.8916 64.8342C34.8916 63.8899 35.6838 63.103 36.6344 63.103H70.0638C71.0144 63.103 71.8065 63.8899 71.8065 64.8342C71.8065 65.7785 71.0144 66.5654 70.0638 66.5654Z" fill="#001829"/>
<path opacity="0.1" d="M51.3687 76.4805H36.6344C35.6838 76.4805 34.8916 75.6936 34.8916 74.7493C34.8916 73.805 35.6838 73.0181 36.6344 73.0181H51.3687C52.3193 73.0181 53.1114 73.805 53.1114 74.7493C52.953 75.6936 52.3193 76.4805 51.3687 76.4805Z" fill="#001829"/>
<path d="M78.1433 43.9023C77.9848 43.5876 77.8264 43.2728 77.668 43.1154C77.0342 42.3285 76.2421 41.5416 74.8162 41.0695C72.915 40.4399 71.3306 40.2826 69.9047 40.1252C69.5879 40.1252 69.1126 40.1252 68.7957 39.9678C64.518 39.4956 61.0325 38.8661 53.4277 29.4232C52.6355 28.4789 52.3187 27.5346 51.3681 26.5903C50.5759 25.8034 49.15 26.7477 47.4072 27.0625C47.0904 27.2198 46.6151 27.2198 46.2982 27.2198C44.8723 27.2198 43.288 27.0625 41.8621 26.9051C39.8024 26.7477 41.0699 25.646 38.535 41.0695C38.3765 42.1711 38.2181 43.4302 38.0597 44.5319C38.0597 45.4762 37.9012 46.5778 38.0597 47.5221C38.0597 47.9943 38.0597 48.6238 38.6934 48.6238C45.1892 49.2533 49.3084 48.9386 59.6066 48.9386C64.8349 48.9386 69.9047 48.9386 74.9746 47.9943L76.2421 47.8369C77.1927 47.6795 78.4601 47.3647 78.4601 46.5778C78.6186 45.7909 78.4601 44.8466 78.1433 43.9023Z" fill="#0095FB"/>
<path d="M70.0632 40.1258L68.9541 43.5882C62.2999 43.2734 55.4873 39.1815 52.0018 33.8305C50.7343 31.9419 49.7837 29.8959 48.3578 28.3221C48.3578 28.3221 47.8825 27.85 47.4072 27.3778C49.15 27.0631 50.4175 25.9614 51.3681 26.9057C52.0018 27.5352 52.3187 28.1647 52.794 28.7943C52.9524 28.9516 53.1108 29.2664 53.2692 29.4238L53.4277 29.5812C53.903 30.2107 54.3783 30.6829 54.8536 31.155C55.012 31.3124 55.1705 31.4698 55.3289 31.6271C55.8042 32.2567 56.2795 32.7288 56.7548 33.201C56.9132 33.3583 57.0716 33.5157 57.2301 33.6731C57.7054 34.1453 58.1807 34.6174 58.656 35.0895C58.8144 35.2469 58.9728 35.4043 59.1313 35.5617C59.6066 36.0338 60.0819 36.3486 60.5572 36.6634C60.7156 36.8207 61.0325 36.9781 61.1909 37.1355C61.5078 37.4503 61.9831 37.6077 62.2999 37.9224C62.6168 38.0798 62.7752 38.2372 63.0921 38.3946C63.8843 38.7093 64.518 39.0241 65.1517 39.3389C65.4686 39.4962 65.627 39.4962 65.9439 39.4962C67.0529 39.811 68.0035 39.811 69.1126 39.9684C69.271 40.1258 69.5879 40.1258 70.0632 40.1258Z" fill="#006CB7"/>
<path d="M78.6182 46.8924C78.6182 47.6793 77.3508 47.9941 76.4002 48.1515L75.1327 48.3088C70.0628 49.2531 64.8346 49.2531 59.7647 49.2531C49.4665 49.2531 45.3473 49.5679 38.8515 48.9384C38.3762 48.9384 38.3762 48.3088 38.2178 47.8367C38.2178 46.8924 38.2178 45.7907 38.2178 44.8464C41.8617 45.1612 57.3882 45.9481 69.1122 44.6891C72.4393 44.3743 75.2911 43.9021 77.6676 43.1152C77.8261 43.43 77.9845 43.5874 78.1429 43.9021C78.4598 44.8464 78.6182 45.7907 78.6182 46.8924Z" fill="#DFECFD"/>
<path d="M78.1432 43.9022C75.7667 44.6891 73.2318 45.1612 70.6968 45.476C70.2215 45.476 69.9047 45.476 69.5878 45.3186C69.4294 45.1612 69.2709 44.8465 69.2709 44.6891C69.2709 44.5317 69.2709 44.3743 69.2709 44.3743C69.1125 42.9579 68.9541 41.5414 69.1125 40.125C70.8553 40.2824 72.7565 40.4398 75.133 41.2267C76.5589 41.6988 77.351 42.3283 77.9848 43.2726C77.8263 43.2726 77.9848 43.5874 78.1432 43.9022Z" fill="#DFECFD"/>
<path d="M53.2697 29.2662C53.2697 29.4236 53.2697 29.4236 53.2697 29.2662L51.527 30.6827C51.527 30.6827 51.3685 30.8401 51.2101 30.8401C51.0517 30.8401 50.8932 30.8401 50.8932 30.6827C50.7348 30.5253 50.7348 30.2105 50.8932 30.0532L52.636 28.6367C52.636 28.6367 52.636 28.6367 52.7944 28.6367C52.9529 28.9515 53.1113 29.1089 53.2697 29.2662Z" fill="#DFECFD"/>
<path d="M55.1704 31.6271C55.1704 31.6271 55.1704 31.7845 55.0119 31.7845C54.5366 32.414 53.9029 32.8861 53.2692 33.3583C53.2692 33.3583 53.1107 33.5157 52.9523 33.5157C52.7939 33.5157 52.6354 33.5157 52.6354 33.3583C52.477 33.2009 52.477 32.8861 52.6354 32.7288C53.2692 32.2566 53.7445 31.7845 54.3782 31.1549C54.5366 30.9976 54.5366 30.9976 54.6951 30.9976C54.8535 31.3123 55.0119 31.4697 55.1704 31.6271Z" fill="#DFECFD"/>
<path d="M57.0717 33.673C57.0717 33.8304 57.0717 33.8304 56.9133 33.8304C56.2796 34.4599 55.8043 35.0894 55.1705 35.5616C55.0121 35.719 55.0121 35.719 54.8537 35.719C54.6952 35.719 54.6952 35.719 54.5368 35.5616C54.3784 35.4042 54.3784 35.0894 54.5368 34.932C55.1705 34.3025 55.6458 33.673 56.2796 33.2008C56.2796 33.2008 56.438 33.0435 56.5964 33.0435C56.7549 33.3582 56.9133 33.5156 57.0717 33.673Z" fill="#DFECFD"/>
<path d="M59.1315 35.5607C59.1315 35.7181 59.1315 35.7181 58.9731 35.7181C58.3394 36.1902 57.7056 36.8197 57.0719 37.6066C56.9135 37.764 56.9135 37.764 56.755 37.764C56.5966 37.764 56.5966 37.764 56.4382 37.6066C56.2797 37.4493 56.2797 37.1345 56.4382 36.9771C57.0719 36.1902 57.7056 35.5607 58.3394 34.9312H58.4978C58.6562 35.2459 58.8147 35.5607 59.1315 35.5607Z" fill="#DFECFD"/>
<path d="M61.0323 37.2921C60.557 38.079 60.0817 38.8659 59.7648 39.6529C59.7648 39.8102 59.6064 39.8102 59.4479 39.8102H59.2895C59.1311 39.6529 58.9726 39.4955 59.1311 39.1807C59.6064 38.3938 59.9232 37.6069 60.3985 36.82C60.3985 36.82 60.3985 36.6626 60.557 36.6626C60.7154 36.9774 60.8738 37.1347 61.0323 37.2921Z" fill="#DFECFD"/>
<path d="M62.9342 38.394L62.6174 40.9121C62.6174 41.0695 62.4589 41.2269 62.1421 41.2269C61.9836 41.2269 61.8252 40.9121 61.8252 40.7547L62.3005 38.0793C62.3005 38.0793 62.3005 37.9219 62.4589 37.9219C62.4589 38.0793 62.6174 38.2366 62.9342 38.394Z" fill="#DFECFD"/>
<path d="M65.785 39.4963C65.6266 40.2832 65.6266 40.9127 65.4682 41.6996C65.4682 41.857 65.3097 42.0144 64.9929 42.0144C64.9929 42.0144 64.9929 42.0144 64.8344 42.0144C64.676 42.0144 64.5176 41.6996 64.5176 41.5422C64.676 40.7553 64.8344 40.1258 64.8344 39.3389C65.1513 39.3389 65.4682 39.4963 65.785 39.4963Z" fill="#DFECFD"/>
<path d="M45.5058 37.2927C47.3433 37.2927 48.8329 35.813 48.8329 33.9876C48.8329 32.1623 47.3433 30.6826 45.5058 30.6826C43.6683 30.6826 42.1787 32.1623 42.1787 33.9876C42.1787 35.813 43.6683 37.2927 45.5058 37.2927Z" fill="white"/>
<path d="M45.506 35.4032C46.2935 35.4032 46.9319 34.769 46.9319 33.9868C46.9319 33.2045 46.2935 32.5703 45.506 32.5703C44.7185 32.5703 44.0801 33.2045 44.0801 33.9868C44.0801 34.769 44.7185 35.4032 45.506 35.4032Z" fill="#006CB7"/>
<defs>
<filter id="filter0_d_152_702" x="0.820511" y="0.846291" width="115.038" height="125.325" filterUnits="userSpaceOnUse" color-interpolation-filters="sRGB">
<feFlood flood-opacity="0" result="BackgroundImageFix"/>
<feColorMatrix in="SourceAlpha" type="matrix" values="0 0 0 0 0 0 0 0 0 0 0 0 0 0 0 0 0 0 127 0" result="hardAlpha"/>
<feOffset dy="13.1537"/>
<feGaussianBlur stdDeviation="13.1537"/>
<feColorMatrix type="matrix" values="0 0 0 0 0.397708 0 0 0 0 0.47749 0 0 0 0 0.575 0 0 0 0.18 0"/>
<feBlend mode="normal" in2="BackgroundImageFix" result="effect1_dropShadow_152_702"/>
<feBlend mode="normal" in="SourceGraphic" in2="effect1_dropShadow_152_702" result="shape"/>
</filter>
</defs>
</svg>
