<svg width="86" height="68" viewBox="0 0 86 68" fill="none" xmlns="http://www.w3.org/2000/svg">
<path d="M86.0002 62.7938L83.9669 59.921L81.4748 57.4654L69.6449 45.7919H27.5078C22.4818 45.7919 18.3682 41.6731 18.3682 36.6523V6.94987C18.3682 4.83311 19.0877 2.88317 20.3129 1.32949C21.6997 0.484867 23.3212 0 25.0469 0H76.8241C78.5186 0 80.1088 0.469244 81.4748 1.28258C84.1546 2.87797 85.9637 5.80807 85.9637 9.13963V35.0986C85.9637 37.2102 86.0002 62.7938 86.0002 62.7938Z" fill="#FFA35A"/>
<path d="M39.9053 14.4575H67.9497" stroke="white" stroke-width="6.44593" stroke-miterlimit="10"/>
<path d="M53.9248 4.82812V14.4578" stroke="white" stroke-width="6.44593" stroke-miterlimit="10"/>
<path d="M37.8096 35.3853C37.8096 35.3853 52.8771 35.3853 60.4109 14.4575" stroke="white" stroke-width="6.44593" stroke-miterlimit="10"/>
<path d="M45.7656 22.4082C45.7656 22.4082 46.605 31.1985 62.9291 35.3851" stroke="white" stroke-width="6.44593" stroke-miterlimit="10"/>
<path opacity="0.22" d="M65.7239 0V45.7867H55.3538L53.894 44.3477H52.1943V0H65.7239Z" fill="url(#paint0_linear_152_793)"/>
<path opacity="0.2" d="M47.1009 27.4031V45.7866H27.5078C22.4818 45.7866 18.3682 41.6677 18.3682 36.6469V21.6211H41.3189C44.5148 21.6263 47.1009 24.2123 47.1009 27.4031Z" fill="#0095FB"/>
<path d="M42.111 31.2924V61.8499C42.111 62.5016 42.0016 63.1325 41.8034 63.7164C41.0266 65.9896 38.8733 67.6267 36.3342 67.6267H5.77677C2.58599 67.6267 0 65.0407 0 61.8499V31.2924C0 28.2633 2.33051 25.7763 5.30232 25.5365C5.45873 25.5208 5.62036 25.5156 5.78199 25.5156H36.3395C39.525 25.5156 42.111 28.1016 42.111 31.2924Z" fill="#0095FB"/>
<path d="M31.7621 60.0827H26.8195L24.7705 53.9775H14.9114L12.8989 60.0827H8.95215L17.4609 34.4365H23.1543L31.7621 60.0827ZM23.5349 50.2757L19.7966 38.8369L16.0584 50.2757H23.5349Z" fill="white"/>
<defs>
<linearGradient id="paint0_linear_152_793" x1="58.9609" y1="-22.2881" x2="58.9609" y2="38.2221" gradientUnits="userSpaceOnUse">
<stop stop-color="#FEFEFC"/>
<stop offset="1" stop-color="white" stop-opacity="0.1"/>
</linearGradient>
</defs>
</svg>
