<svg width="100" height="108" viewBox="0 0 100 108" fill="none" xmlns="http://www.w3.org/2000/svg">
<g filter="url(#filter0_d_152_678)">
<path d="M67.9956 67.9995H31.8082C28.9027 67.9995 26.5254 65.638 26.5254 62.7517V18.8015C26.5254 15.9152 28.9027 13.5537 31.8082 13.5537H67.9956C70.9012 13.5537 73.2785 15.9152 73.2785 18.8015V62.7517C73.4105 65.638 71.0333 67.9995 67.9956 67.9995Z" fill="white"/>
</g>
<path opacity="0.1" d="M58.7511 52.912H33.6576C32.8652 52.912 32.3369 52.256 32.3369 51.6C32.3369 50.8129 32.9973 50.2881 33.6576 50.2881H58.8832C59.6756 50.2881 60.2039 50.9441 60.2039 51.6C60.0718 52.256 59.5435 52.912 58.7511 52.912Z" fill="#001829"/>
<path opacity="0.1" d="M44.7516 60.39H33.6576C32.8652 60.39 32.3369 59.734 32.3369 59.0781C32.3369 58.4221 32.9973 57.7661 33.6576 57.7661H44.7516C45.544 57.7661 46.0723 58.4221 46.0723 59.0781C45.9402 59.8652 45.4119 60.39 44.7516 60.39Z" fill="#001829"/>
<path d="M62.8444 26.0174C62.7123 25.8862 62.5803 25.755 62.4482 25.755C60.8633 24.4431 59.4106 23.1311 57.8257 21.9504C57.6936 21.8192 57.4295 21.688 57.1654 21.688C55.9767 21.688 54.7881 21.688 53.5994 21.688C53.0712 21.688 52.807 21.9504 52.807 22.4752C52.6749 23.6559 51.7505 24.7055 50.5618 24.7055C49.2411 24.7055 48.1845 23.7871 48.0525 22.6064C47.9204 21.4256 47.6563 21.8192 43.9583 21.688C43.5621 21.688 43.2979 21.8192 42.9017 22.0816C41.3169 23.3935 39.732 24.7055 38.2792 25.8862C38.1472 25.8862 38.1472 26.0174 38.0151 26.0174C37.4868 26.411 37.4868 26.6734 37.883 27.1982C38.6754 28.1165 39.4679 29.0349 40.1282 29.9532C40.5244 30.3468 40.6565 30.478 41.4489 30.0844C41.8451 29.9532 42.5055 29.5597 43.2979 29.1661V40.8424C43.2979 41.6296 43.43 41.892 44.3545 41.892C48.3166 41.892 52.2787 41.892 56.2409 41.892C57.1654 41.892 57.2974 41.7608 57.2974 40.8424V29.1661C58.2219 29.5597 58.8823 29.9532 59.2785 30.0844C60.0709 30.478 60.203 30.3468 60.5992 29.9532C61.3916 29.0349 62.1841 28.1165 62.9765 27.1982C63.3727 26.8046 63.3727 26.411 62.8444 26.0174Z" fill="#DDE1F0"/>
<path d="M55.7131 29.953L54.3924 30.8714C54.2604 31.0026 53.8641 31.0026 53.7321 30.8714L52.4114 29.953C52.2793 29.8218 52.2793 29.6906 52.2793 29.6906V27.5915C52.2793 27.4603 52.4114 27.3291 52.5434 27.3291H55.5811C55.7131 27.3291 55.8452 27.4603 55.8452 27.5915V29.6906C55.8452 29.8218 55.7131 29.953 55.7131 29.953Z" fill="#C5CCDE"/>
<path d="M41.7126 30.084C40.9202 30.4776 40.7881 30.3464 40.3919 29.9528C39.5995 29.0344 38.807 28.1161 38.1467 27.1977C37.7505 26.6729 37.7505 26.4105 38.2788 26.0169C38.4108 26.0169 38.4108 25.8857 38.5429 25.8857L41.7126 30.084Z" fill="#C5CCDE"/>
<path d="M63.1091 27.1985C62.3167 28.1169 61.5243 29.0352 60.7318 29.9536C60.3356 30.3472 60.2036 30.3472 59.4111 30.0848L62.5808 25.7554C62.7129 25.8866 62.845 26.0178 62.977 26.0178C63.5053 26.4113 63.5053 26.8049 63.1091 27.1985Z" fill="#C5CCDE"/>
<defs>
<filter id="filter0_d_152_678" x="0.217972" y="0.400002" width="99.3736" height="107.061" filterUnits="userSpaceOnUse" color-interpolation-filters="sRGB">
<feFlood flood-opacity="0" result="BackgroundImageFix"/>
<feColorMatrix in="SourceAlpha" type="matrix" values="0 0 0 0 0 0 0 0 0 0 0 0 0 0 0 0 0 0 127 0" result="hardAlpha"/>
<feOffset dy="13.1537"/>
<feGaussianBlur stdDeviation="13.1537"/>
<feColorMatrix type="matrix" values="0 0 0 0 0.397708 0 0 0 0 0.47749 0 0 0 0 0.575 0 0 0 0.18 0"/>
<feBlend mode="normal" in2="BackgroundImageFix" result="effect1_dropShadow_152_678"/>
<feBlend mode="normal" in="SourceGraphic" in2="effect1_dropShadow_152_678" result="shape"/>
</filter>
</defs>
</svg>
