<svg width="48" height="47" viewBox="0 0 48 47" fill="none" xmlns="http://www.w3.org/2000/svg">
<path opacity="0.2" d="M47.1009 6.40307V24.7866H27.5078C22.4818 24.7866 18.3682 20.6677 18.3682 15.6469V0.621094H41.3189C44.5148 0.626307 47.1009 3.21228 47.1009 6.40307Z" fill="#0095FB"/>
<path d="M42.111 10.2924V40.8499C42.111 41.5016 42.0016 42.1325 41.8034 42.7164C41.0266 44.9896 38.8733 46.6267 36.3342 46.6267H5.77677C2.58599 46.6267 0 44.0407 0 40.8499V10.2924C0 7.26325 2.33051 4.7763 5.30232 4.53647C5.45873 4.52083 5.62036 4.51563 5.78199 4.51563H36.3395C39.525 4.51562 42.111 7.10163 42.111 10.2924Z" fill="#0095FB"/>
<path d="M31.7621 39.0827H26.8195L24.7705 32.9775H14.9114L12.8989 39.0827H8.95215L17.4609 13.4365H23.1543L31.7621 39.0827ZM23.5349 29.2757L19.7966 17.8369L16.0584 29.2757H23.5349Z" fill="white"/>
</svg>
