<svg width="68" height="63" viewBox="0 0 68 63" fill="none" xmlns="http://www.w3.org/2000/svg">
<path d="M68.0002 62.7938L65.9669 59.921L63.4748 57.4654L51.6449 45.7919H9.50777C4.48177 45.7919 0.368164 41.6731 0.368164 36.6523V6.94987C0.368164 4.83311 1.08766 2.88317 2.31288 1.32949C3.69972 0.484867 5.32119 0 7.04692 0H58.8241C60.5186 0 62.1088 0.469244 63.4748 1.28258C66.1546 2.87797 67.9637 5.80807 67.9637 9.13963V35.0986C67.9637 37.2102 68.0002 62.7938 68.0002 62.7938Z" fill="#FFA35A"/>
<path d="M21.9053 14.4575H49.9497" stroke="white" stroke-width="6.44593" stroke-miterlimit="10"/>
<path d="M35.9248 4.82812V14.4578" stroke="white" stroke-width="6.44593" stroke-miterlimit="10"/>
<path d="M19.8096 35.3853C19.8096 35.3853 34.8771 35.3853 42.4109 14.4575" stroke="white" stroke-width="6.44593" stroke-miterlimit="10"/>
<path d="M27.7656 22.4082C27.7656 22.4082 28.605 31.1985 44.9291 35.3851" stroke="white" stroke-width="6.44593" stroke-miterlimit="10"/>
<path opacity="0.22" d="M47.7239 0V45.7867H37.3538L35.894 44.3477H34.1943V0H47.7239Z" fill="url(#paint0_linear_152_794)"/>
<defs>
<linearGradient id="paint0_linear_152_794" x1="40.9609" y1="-22.2881" x2="40.9609" y2="38.2221" gradientUnits="userSpaceOnUse">
<stop stop-color="#FEFEFC"/>
<stop offset="1" stop-color="white" stop-opacity="0.1"/>
</linearGradient>
</defs>
</svg>
