<svg width="181" height="191" viewBox="0 0 181 191" fill="none" xmlns="http://www.w3.org/2000/svg">
<g filter="url(#filter0_f_152_582)">
<rect x="52" y="64" width="77" height="75" rx="24" fill="url(#paint0_linear_152_582)"/>
</g>
<rect x="17.5" y="0.5" width="114" height="110" rx="23.5" stroke="url(#paint1_linear_152_582)"/>
<rect x="33" y="16" width="115" height="111" rx="24" fill="url(#paint2_linear_152_582)"/>
<path d="M124.134 38.7532V53.6862C124.134 55.7624 122.46 57.4394 120.387 57.4394H63.6175C61.5445 57.4394 59.8701 55.7624 59.8701 53.6862V38.7532C59.8701 36.677 61.5445 35 63.6175 35H120.467C122.54 35 124.134 36.677 124.134 38.7532Z" fill="#E1E4EA"/>
<path d="M121.344 38.7532V53.6862C121.344 55.7624 119.67 57.4394 117.597 57.4394H60.7474C58.6744 57.4394 57 55.7624 57 53.6862V38.7532C57 36.677 58.6744 35 60.7474 35H117.597C119.67 35 121.344 36.677 121.344 38.7532Z" fill="#D8DDE7"/>
<path d="M114.009 45.1419V57.3598H64.0967V45.1419C64.0967 43.0656 65.7711 41.3887 67.8441 41.3887H110.341C112.415 41.4685 114.009 43.1455 114.009 45.1419Z" fill="#E9EEF4"/>
<path opacity="0.3" d="M114.009 45.1419V57.3598H64.0967V45.1419C64.0967 43.0656 65.7711 41.3887 67.8441 41.3887H110.341C112.415 41.4685 114.009 43.1455 114.009 45.1419Z" fill="url(#paint3_linear_152_582)"/>
<path d="M109.544 50.7314H70.7144C70.3954 50.7314 70.1562 50.4919 70.1562 50.1724V48.6552C70.1562 48.3358 70.3954 48.0962 70.7144 48.0962H109.624C109.943 48.0962 110.182 48.3358 110.182 48.6552V50.1724C110.182 50.4919 109.863 50.7314 109.544 50.7314Z" fill="#001829"/>
<g filter="url(#filter1_d_152_582)">
<path d="M101.969 83.3128V94.0933C101.969 94.9717 101.012 95.4509 100.295 94.8919L98.142 93.2948C97.7433 93.0552 97.2649 93.0552 96.8663 93.2948L93.677 95.6904C93.2783 95.93 92.7999 95.93 92.4013 95.6904L89.212 93.2948C88.8133 93.0552 88.3349 93.0552 87.9362 93.2948L84.7469 95.6904C84.3483 95.93 83.8699 95.93 83.4712 95.6904L80.2819 93.2948C79.8833 93.0552 79.4049 93.0552 79.0062 93.2948L75.8169 95.6904C75.4182 95.93 74.9399 95.93 74.5412 95.6904L71.3519 93.2948C70.9532 93.0552 70.4748 93.0552 70.0762 93.2948L67.9234 94.8919C67.2058 95.371 66.249 94.8919 66.249 94.0933V59.9152C66.3288 53.926 67.445 51.3706 72.4682 49.4541H108.188C103.245 50.7318 101.81 53.8462 101.969 59.9152V75.0079V83.3128Z" fill="white"/>
</g>
<path opacity="0.2" d="M93.7568 63.8282H82.0362C81.3983 63.8282 80.9199 63.3491 80.9199 62.7103C80.9199 62.0714 81.3983 61.5923 82.0362 61.5923H93.8366C94.4744 61.5923 94.9528 62.0714 94.9528 62.7103C94.8731 63.3491 94.3947 63.8282 93.7568 63.8282Z" fill="#001829"/>
<path opacity="0.2" d="M77.8106 63.8282H72.628C71.9901 63.8282 71.5117 63.3491 71.5117 62.7103C71.5117 62.0714 71.9901 61.5923 72.628 61.5923H77.8106C78.4484 61.5923 78.9268 62.0714 78.9268 62.7103C78.9268 63.3491 78.4484 63.8282 77.8106 63.8282Z" fill="#001829"/>
<path opacity="0.2" d="M93.7571 73.171H72.628C71.9901 73.171 71.5117 72.6919 71.5117 72.053C71.5117 71.4142 71.9901 70.9351 72.628 70.9351H93.7571C94.3949 70.9351 94.8733 71.4142 94.8733 72.053C94.8733 72.6919 94.3949 73.171 93.7571 73.171Z" fill="#001829"/>
<path opacity="0.2" d="M88.5738 82.4347H80.3614C79.7235 82.4347 79.2451 81.9555 79.2451 81.3167C79.2451 80.6779 79.7235 80.1987 80.3614 80.1987H88.5738C89.2117 80.1987 89.6901 80.6779 89.6901 81.3167C89.6901 81.9555 89.1319 82.4347 88.5738 82.4347Z" fill="#001829"/>
<path opacity="0.2" d="M75.8173 82.4347H72.628C71.9901 82.4347 71.5117 81.9555 71.5117 81.3167C71.5117 80.6779 71.9901 80.1987 72.628 80.1987H75.8173C76.4551 80.1987 76.9335 80.6779 76.9335 81.3167C76.9335 81.9555 76.3754 82.4347 75.8173 82.4347Z" fill="#001829"/>
<path d="M119.032 82.754V105.832C119.032 106.711 118.315 107.429 117.438 107.429C114.168 107.429 106.674 107.509 104.521 107.509C104.122 107.509 103.724 107.349 103.484 107.11L101.651 105.513L98.222 102.319C97.026 101.201 96.0692 99.8431 95.5111 98.246L92.1624 88.5036L91.0461 85.3094L90.9664 85.1497L89.4515 80.6777C89.3717 80.4382 89.292 80.1986 89.292 79.8792V79.7993C89.292 78.9209 89.8501 78.1224 90.6474 77.7231C92.7205 76.7648 95.1125 77.4037 96.4679 79.0806C96.7071 79.4001 96.9463 79.7993 97.1058 80.1986L99.6572 86.4273L100.295 88.0244L100.375 88.1842C100.614 88.823 101.332 89.1424 101.969 88.9029L106.355 87.6252C106.913 87.4655 107.232 86.9863 107.232 86.4273L106.993 82.6741C106.913 81.5562 106.514 80.4382 105.717 79.6396L101.89 75.4073V69.2584L101.615 62.7002L116.879 77.7231C118.235 79.0806 119.032 80.9173 119.032 82.754Z" fill="white" stroke="#001829" stroke-width="0.66879" stroke-miterlimit="10" stroke-linecap="round" stroke-linejoin="round"/>
<path d="M101.126 62.0312L98.6055 62.3742V66.1469L101.126 75.407H103.287L102.284 64.0376L101.949 62.0312H101.126Z" fill="white"/>
<defs>
<filter id="filter0_f_152_582" x="0" y="12" width="181" height="179" filterUnits="userSpaceOnUse" color-interpolation-filters="sRGB">
<feFlood flood-opacity="0" result="BackgroundImageFix"/>
<feBlend mode="normal" in="SourceGraphic" in2="BackgroundImageFix" result="shape"/>
<feGaussianBlur stdDeviation="26" result="effect1_foregroundBlur_152_582"/>
</filter>
<filter id="filter1_d_152_582" x="51.5356" y="42.0974" width="71.3662" height="75.8428" filterUnits="userSpaceOnUse" color-interpolation-filters="sRGB">
<feFlood flood-opacity="0" result="BackgroundImageFix"/>
<feColorMatrix in="SourceAlpha" type="matrix" values="0 0 0 0 0 0 0 0 0 0 0 0 0 0 0 0 0 0 127 0" result="hardAlpha"/>
<feOffset dy="7.35669"/>
<feGaussianBlur stdDeviation="7.35669"/>
<feColorMatrix type="matrix" values="0 0 0 0 0.397708 0 0 0 0 0.47749 0 0 0 0 0.575 0 0 0 0.26 0"/>
<feBlend mode="normal" in2="BackgroundImageFix" result="effect1_dropShadow_152_582"/>
<feBlend mode="normal" in="SourceGraphic" in2="effect1_dropShadow_152_582" result="shape"/>
</filter>
<linearGradient id="paint0_linear_152_582" x1="51.8101" y1="101.639" x2="129.168" y2="101.035" gradientUnits="userSpaceOnUse">
<stop stop-color="#FFB500"/>
<stop offset="1" stop-color="#FF830A"/>
</linearGradient>
<linearGradient id="paint1_linear_152_582" x1="17" y1="0" x2="92.5" y2="74" gradientUnits="userSpaceOnUse">
<stop stop-color="#FFA35A"/>
<stop offset="1" stop-color="white" stop-opacity="0"/>
</linearGradient>
<linearGradient id="paint2_linear_152_582" x1="32.7163" y1="71.7053" x2="148.25" y2="70.7956" gradientUnits="userSpaceOnUse">
<stop stop-color="#FFB500"/>
<stop offset="1" stop-color="#FF830A"/>
</linearGradient>
<linearGradient id="paint3_linear_152_582" x1="89.0568" y1="41.7524" x2="89.0568" y2="57.1542" gradientUnits="userSpaceOnUse">
<stop offset="0.00289017" stop-color="#0E2F51"/>
<stop offset="1" stop-color="#35415E" stop-opacity="0.31"/>
</linearGradient>
</defs>
</svg>
