<svg width="100%" height="100%" viewBox="0 0 293 351" fill="none" xmlns="http://www.w3.org/2000/svg">
<g filter="url(#filter0_d_152_568)">
<path d="M207.993 230H85.2592C75.3078 230 67.252 220.613 67.252 209.018V33.9822C67.252 22.3868 75.3078 13 85.2592 13H207.993C217.944 13 226 22.3868 226 33.9822V209.018C226 220.613 217.944 230 207.993 230Z" fill="white"/>
</g>
<path opacity="0.1" d="M186.546 152.182H91.1432C88.7581 152.182 86.373 150.293 86.373 148.403C86.373 146.04 88.2811 144.623 91.1432 144.623H186.546C188.931 144.623 191.316 146.513 191.316 148.403C190.839 150.293 188.931 152.182 186.546 152.182Z" fill="#001829"/>
<path opacity="0.1" d="M129.195 175.306H91.131C88.752 175.306 86.373 173.416 86.373 171.526C86.373 169.163 88.2762 167.746 91.131 167.746H129.195C131.574 167.746 133.953 169.636 133.953 171.526C133.477 173.416 131.574 175.306 129.195 175.306Z" fill="#001829"/>
<path opacity="0.05" d="M200.778 121.5H91.1399C88.2798 121.5 86.373 119.102 86.373 116.704V40.9195C86.373 38.0416 88.7565 36.123 91.1399 36.123H200.778C203.638 36.123 205.545 38.5213 205.545 40.9195V116.704C205.545 119.582 203.162 121.5 200.778 121.5Z" fill="#001829"/>
<path d="M149.516 103.269H109.94L129.967 80.5903L149.516 103.269Z" fill="#CED7E2"/>
<path d="M182.423 103.269H125.505L153.725 70.3628L182.423 103.269Z" fill="url(#paint0_linear_152_568)"/>
<path d="M125.059 72.586C129.234 72.586 132.619 69.102 132.619 64.8042C132.619 60.5065 129.234 57.0225 125.059 57.0225C120.884 57.0225 117.5 60.5065 117.5 64.8042C117.5 69.102 120.884 72.586 125.059 72.586Z" fill="#0095FB"/>
<g filter="url(#filter1_d_152_568)">
<path d="M202.216 160.695C205.053 160.695 207.323 162.965 207.323 165.802V198.716C207.323 206.094 201.648 211.769 194.271 211.769H172.707C170.437 211.769 168.167 211.201 167.032 209.499C161.924 204.959 151.142 195.879 148.872 192.474C148.305 191.339 147.737 190.772 147.737 189.637V182.259C147.737 177.719 151.142 174.315 155.682 174.315H158.52V188.502H160.222V158.992C160.222 156.155 162.492 153.885 165.329 153.885C168.167 153.885 170.437 156.155 170.437 158.992V164.667H172.139V157.29C172.139 154.453 174.409 152.183 177.247 152.183C180.084 152.183 182.354 154.453 182.354 157.29V164.667H184.624V160.695C184.624 157.857 186.894 155.588 189.731 155.588C192.569 155.588 194.839 157.857 194.839 160.695V164.667H197.109C197.676 162.397 199.379 160.695 202.216 160.695Z" fill="white"/>
<path d="M202.216 160.695C205.053 160.695 207.323 162.965 207.323 165.802V198.716C207.323 206.094 201.648 211.769 194.271 211.769H172.707C170.437 211.769 168.167 211.201 167.032 209.499C161.924 204.959 151.142 195.879 148.872 192.474C148.305 191.339 147.737 190.772 147.737 189.637V182.259C147.737 177.719 151.142 174.315 155.682 174.315H158.52V188.502H160.222V158.992C160.222 156.155 162.492 153.885 165.329 153.885C168.167 153.885 170.437 156.155 170.437 158.992V164.667H172.139V157.29C172.139 154.453 174.409 152.183 177.247 152.183C180.084 152.183 182.354 154.453 182.354 157.29V164.667H184.624V160.695C184.624 157.857 186.894 155.588 189.731 155.588C192.569 155.588 194.839 157.857 194.839 160.695V164.667H197.109C197.676 162.397 199.379 160.695 202.216 160.695Z" stroke="#001829" stroke-width="4.24207" stroke-miterlimit="10" stroke-linecap="round" stroke-linejoin="round"/>
</g>
<defs>
<filter id="filter0_d_152_568" x="0.969658" y="0.948666" width="291.313" height="349.565" filterUnits="userSpaceOnUse" color-interpolation-filters="sRGB">
<feFlood flood-opacity="0" result="BackgroundImageFix"/>
<feColorMatrix in="SourceAlpha" type="matrix" values="0 0 0 0 0 0 0 0 0 0 0 0 0 0 0 0 0 0 127 0" result="hardAlpha"/>
<feOffset dy="54.231"/>
<feGaussianBlur stdDeviation="33.1411"/>
<feColorMatrix type="matrix" values="0 0 0 0 0.397708 0 0 0 0 0.47749 0 0 0 0 0.575 0 0 0 0.35 0"/>
<feBlend mode="normal" in2="BackgroundImageFix" result="effect1_dropShadow_152_568"/>
<feBlend mode="normal" in="SourceGraphic" in2="effect1_dropShadow_152_568" result="shape"/>
</filter>
<filter id="filter1_d_152_568" x="127.539" y="147.049" width="99.9821" height="99.9821" filterUnits="userSpaceOnUse" color-interpolation-filters="sRGB">
<feFlood flood-opacity="0" result="BackgroundImageFix"/>
<feColorMatrix in="SourceAlpha" type="matrix" values="0 0 0 0 0 0 0 0 0 0 0 0 0 0 0 0 0 0 127 0" result="hardAlpha"/>
<feOffset dy="15.0642"/>
<feGaussianBlur stdDeviation="9.03849"/>
<feColorMatrix type="matrix" values="0 0 0 0 0.397708 0 0 0 0 0.47749 0 0 0 0 0.575 0 0 0 0.28 0"/>
<feBlend mode="normal" in2="BackgroundImageFix" result="effect1_dropShadow_152_568"/>
<feBlend mode="normal" in="SourceGraphic" in2="effect1_dropShadow_152_568" result="shape"/>
</filter>
<linearGradient id="paint0_linear_152_568" x1="125.364" y1="86.8765" x2="182.541" y2="86.1249" gradientUnits="userSpaceOnUse">
<stop stop-color="#FFB500"/>
<stop offset="1" stop-color="#FF830A"/>
</linearGradient>
</defs>
</svg>
